<svg width="48" height="2442" viewBox="0 0 48 2442" fill="none" xmlns="http://www.w3.org/2000/svg">
<g clip-path="url(#clip0_1391_9915)">
<g opacity="0.5">
<path d="M20.656 2269.06L20.656 2275.01H19.616L19.616 2267.71H20.656L30 2271.68V2273.22L20.656 2269.06Z" fill="#155268"/>
<path d="M26.1598 2095.28C26.1598 2095.75 26.1438 2096.13 26.1118 2096.42C26.0798 2096.71 26.0158 2097 25.9198 2097.31C25.8238 2097.64 25.6851 2097.91 25.5038 2098.1C25.3118 2098.29 25.0451 2098.45 24.7038 2098.58C24.3624 2098.71 23.9624 2098.77 23.5038 2098.77H18.2558C17.7758 2098.77 17.3544 2098.69 16.9918 2098.55C16.6291 2098.39 16.3411 2098.18 16.1278 2097.94C15.9464 2097.72 15.8024 2097.44 15.6958 2097.07C15.5784 2096.71 15.5038 2096.35 15.4718 2095.99C15.4504 2095.58 15.4398 2095.21 15.4398 2094.88C15.4398 2094.23 15.4878 2093.36 15.5838 2092.26H16.6718C16.5331 2093.36 16.4638 2094.3 16.4638 2095.09C16.4638 2095.69 16.5064 2096.14 16.5918 2096.45C16.6771 2096.76 16.8478 2096.99 17.1038 2097.14C17.3491 2097.28 17.7224 2097.35 18.2238 2097.35H19.8558L19.8558 2094.99C19.8558 2094.46 19.8664 2094.06 19.8878 2093.79C19.9091 2093.53 19.9518 2093.24 20.0158 2092.95C20.0798 2092.65 20.1864 2092.43 20.3358 2092.29C20.4851 2092.14 20.6984 2092.01 20.9758 2091.91C21.2424 2091.81 21.5784 2091.76 21.9838 2091.76H23.5038C24.6558 2091.76 25.4024 2092.12 25.7438 2092.85C25.9038 2093.2 26.0104 2093.55 26.0638 2093.91C26.1278 2094.26 26.1598 2094.72 26.1598 2095.28ZM25.2158 2095.25C25.2158 2094.68 25.1784 2094.26 25.1038 2093.99C25.0184 2093.7 24.8638 2093.49 24.6398 2093.38C24.4051 2093.25 24.0531 2093.19 23.5838 2093.19H22.0318C21.6798 2093.19 21.4184 2093.24 21.2478 2093.35C21.0664 2093.45 20.9438 2093.65 20.8798 2093.94C20.8158 2094.23 20.7838 2094.67 20.7838 2095.27L20.7838 2097.35H23.5838C24.0531 2097.35 24.4051 2097.28 24.6398 2097.15C24.8638 2097.03 25.0184 2096.82 25.1038 2096.53C25.1784 2096.24 25.2158 2095.81 25.2158 2095.25Z" fill="#155268"/>
<path d="M20.8478 2105V2100.55H21.9998V2105H20.8478Z" fill="#155268"/>
<path d="M26.1598 2110.3C26.1598 2110.77 26.1438 2111.15 26.1118 2111.45C26.0798 2111.74 26.0158 2112.05 25.9198 2112.38C25.8238 2112.73 25.6851 2113.01 25.5038 2113.22C25.3118 2113.43 25.0451 2113.6 24.7038 2113.74C24.3838 2113.88 23.9838 2113.94 23.5038 2113.94H18.2558C17.7758 2113.94 17.3544 2113.88 16.9918 2113.74C16.6291 2113.6 16.3411 2113.42 16.1278 2113.19C15.9464 2112.99 15.8024 2112.72 15.6958 2112.39C15.5784 2112.05 15.5038 2111.71 15.4718 2111.37C15.4504 2110.98 15.4398 2110.63 15.4398 2110.3C15.4398 2109.83 15.4558 2109.45 15.4878 2109.16C15.5198 2108.86 15.5838 2108.55 15.6798 2108.22C15.7864 2107.86 15.9358 2107.58 16.1278 2107.37C16.3198 2107.14 16.5918 2106.96 16.9438 2106.82C17.2958 2106.69 17.7278 2106.62 18.2398 2106.62H23.5038C23.9411 2106.62 24.3304 2106.69 24.6718 2106.82C25.0131 2106.96 25.2798 2107.14 25.4718 2107.37C25.6531 2107.58 25.8024 2107.85 25.9198 2108.18C26.0264 2108.52 26.0904 2108.85 26.1118 2109.19C26.1438 2109.49 26.1598 2109.86 26.1598 2110.3ZM25.2158 2110.26C25.2158 2109.7 25.1784 2109.26 25.1038 2108.95C25.0184 2108.64 24.8584 2108.42 24.6238 2108.28C24.3891 2108.14 24.0424 2108.07 23.5838 2108.07H18.1438C17.6424 2108.07 17.2691 2108.15 17.0238 2108.3C16.7678 2108.44 16.5971 2108.66 16.5118 2108.97C16.4264 2109.27 16.3838 2109.7 16.3838 2110.28C16.3838 2110.87 16.4264 2111.32 16.5118 2111.62C16.5971 2111.92 16.7678 2112.14 17.0238 2112.28C17.2691 2112.42 17.6424 2112.49 18.1438 2112.49H23.5838C24.0424 2112.49 24.3891 2112.42 24.6238 2112.28C24.8584 2112.13 25.0184 2111.9 25.1038 2111.59C25.1784 2111.28 25.2158 2110.84 25.2158 2110.26Z" fill="#155268"/>
<path d="M26.1598 2119.58C26.1598 2120.05 26.1438 2120.43 26.1118 2120.73C26.0798 2121.02 26.0158 2121.33 25.9198 2121.66C25.8238 2122.01 25.6851 2122.29 25.5038 2122.51C25.3118 2122.71 25.0451 2122.88 24.7038 2123.02C24.3838 2123.16 23.9838 2123.23 23.5038 2123.23H18.2558C17.7758 2123.23 17.3544 2123.16 16.9918 2123.02C16.6291 2122.88 16.3411 2122.7 16.1278 2122.47C15.9464 2122.27 15.8024 2122 15.6958 2121.67C15.5784 2121.33 15.5038 2120.99 15.4718 2120.65C15.4504 2120.27 15.4398 2119.91 15.4398 2119.58C15.4398 2119.11 15.4558 2118.73 15.4878 2118.44C15.5198 2118.14 15.5838 2117.83 15.6798 2117.5C15.7864 2117.15 15.9358 2116.86 16.1278 2116.65C16.3198 2116.43 16.5918 2116.24 16.9438 2116.11C17.2958 2115.97 17.7278 2115.9 18.2398 2115.9H23.5038C23.9411 2115.9 24.3304 2115.97 24.6718 2116.11C25.0131 2116.24 25.2798 2116.43 25.4718 2116.65C25.6531 2116.86 25.8024 2117.14 25.9198 2117.47C26.0264 2117.8 26.0904 2118.13 26.1118 2118.47C26.1438 2118.77 26.1598 2119.14 26.1598 2119.58ZM25.2158 2119.55C25.2158 2118.98 25.1784 2118.54 25.1038 2118.23C25.0184 2117.92 24.8584 2117.7 24.6238 2117.56C24.3891 2117.42 24.0424 2117.35 23.5838 2117.35H18.1438C17.6424 2117.35 17.2691 2117.43 17.0238 2117.58C16.7678 2117.72 16.5971 2117.94 16.5118 2118.25C16.4264 2118.55 16.3838 2118.99 16.3838 2119.56C16.3838 2120.15 16.4264 2120.6 16.5118 2120.91C16.5971 2121.2 16.7678 2121.42 17.0238 2121.56C17.2691 2121.7 17.6424 2121.77 18.1438 2121.77H23.5838C24.0424 2121.77 24.3891 2121.7 24.6238 2121.56C24.8584 2121.41 25.0184 2121.18 25.1038 2120.87C25.1784 2120.56 25.2158 2120.12 25.2158 2119.55Z" fill="#155268"/>
<path d="M24.1438 2132.33C23.8451 2132.33 23.5678 2132.28 23.3118 2132.19C23.0451 2132.08 22.8211 2131.95 22.6398 2131.79C22.4904 2131.66 22.3304 2131.47 22.1598 2131.21C21.9784 2130.94 21.8291 2130.69 21.7118 2130.46C21.6051 2130.26 21.4824 2129.99 21.3438 2129.66L20.5758 2127.93C20.2771 2127.25 19.8131 2126.91 19.1838 2126.91H17.7598C17.2691 2126.91 16.9438 2127.06 16.7838 2127.36C16.6131 2127.65 16.5278 2128.18 16.5278 2128.92C16.5278 2129.66 16.6398 2130.67 16.8638 2131.96H15.7438C15.5411 2130.89 15.4398 2129.77 15.4398 2128.62C15.4398 2127.47 15.6158 2126.64 15.9678 2126.12C16.3091 2125.61 16.8851 2125.36 17.6958 2125.36H19.3918C19.7758 2125.36 20.0958 2125.42 20.3518 2125.55C20.5971 2125.68 20.8211 2125.88 21.0238 2126.17C21.2158 2126.45 21.4344 2126.86 21.6798 2127.4L22.7838 2129.8C23.1038 2130.51 23.5731 2130.86 24.1918 2130.86H24.8798V2125.36H25.9998V2132.33H24.1438Z" fill="#155268"/>
<path d="M30.16 1921.38C30.16 1921.85 30.144 1922.22 30.112 1922.51C30.08 1922.8 30.016 1923.1 29.92 1923.41C29.824 1923.74 29.6853 1924 29.504 1924.19C29.312 1924.38 29.0453 1924.54 28.704 1924.67C28.3627 1924.8 27.9627 1924.86 27.504 1924.86H22.256C21.776 1924.86 21.3547 1924.79 20.992 1924.64C20.6293 1924.48 20.3413 1924.28 20.128 1924.03C19.9467 1923.82 19.8027 1923.53 19.696 1923.17C19.5787 1922.81 19.504 1922.44 19.472 1922.08C19.4507 1921.67 19.44 1921.31 19.44 1920.98C19.44 1920.33 19.488 1919.45 19.584 1918.35H20.672C20.5333 1919.45 20.464 1920.39 20.464 1921.18C20.464 1921.78 20.5067 1922.23 20.592 1922.54C20.6773 1922.85 20.848 1923.08 21.104 1923.23C21.3493 1923.37 21.7227 1923.44 22.224 1923.44H23.856V1921.09C23.856 1920.55 23.8667 1920.15 23.888 1919.89C23.9093 1919.62 23.952 1919.34 24.016 1919.04C24.08 1918.74 24.1867 1918.52 24.336 1918.38C24.4853 1918.23 24.6987 1918.11 24.976 1918C25.2427 1917.9 25.5787 1917.86 25.984 1917.86H27.504C28.656 1917.86 29.4027 1918.22 29.744 1918.94C29.904 1919.3 30.0107 1919.65 30.064 1920C30.128 1920.35 30.16 1920.81 30.16 1921.38ZM29.216 1921.34C29.216 1920.78 29.1787 1920.36 29.104 1920.08C29.0187 1919.79 28.864 1919.59 28.64 1919.47C28.4053 1919.34 28.0533 1919.28 27.584 1919.28H26.032C25.68 1919.28 25.4187 1919.33 25.248 1919.44C25.0667 1919.55 24.944 1919.74 24.88 1920.03C24.816 1920.32 24.784 1920.76 24.784 1921.36V1923.44H27.584C28.0533 1923.44 28.4053 1923.38 28.64 1923.25C28.864 1923.12 29.0187 1922.91 29.104 1922.62C29.1787 1922.34 29.216 1921.91 29.216 1921.34Z" fill="#155268"/>
<path d="M26.1598 1745.28C26.1598 1745.75 26.1438 1746.13 26.1118 1746.42C26.0798 1746.71 26.0158 1747 25.9198 1747.31C25.8238 1747.64 25.6851 1747.91 25.5038 1748.1C25.3118 1748.29 25.0451 1748.45 24.7038 1748.58C24.3624 1748.71 23.9624 1748.77 23.5038 1748.77H18.2558C17.7758 1748.77 17.3544 1748.69 16.9918 1748.55C16.6291 1748.39 16.3411 1748.18 16.1278 1747.94C15.9464 1747.72 15.8024 1747.44 15.6958 1747.07C15.5784 1746.71 15.5038 1746.35 15.4718 1745.99C15.4504 1745.58 15.4398 1745.21 15.4398 1744.88C15.4398 1744.23 15.4878 1743.36 15.5838 1742.26H16.6718C16.5331 1743.36 16.4638 1744.3 16.4638 1745.09C16.4638 1745.69 16.5064 1746.14 16.5918 1746.45C16.6771 1746.76 16.8478 1746.99 17.1038 1747.14C17.3491 1747.28 17.7224 1747.35 18.2238 1747.35H19.8558L19.8558 1744.99C19.8558 1744.46 19.8664 1744.06 19.8878 1743.79C19.9091 1743.53 19.9518 1743.24 20.0158 1742.95C20.0798 1742.65 20.1864 1742.43 20.3358 1742.29C20.4851 1742.14 20.6984 1742.01 20.9758 1741.91C21.2424 1741.81 21.5784 1741.76 21.9838 1741.76H23.5038C24.6558 1741.76 25.4024 1742.12 25.7438 1742.85C25.9038 1743.2 26.0104 1743.55 26.0638 1743.91C26.1278 1744.26 26.1598 1744.72 26.1598 1745.28ZM25.2158 1745.25C25.2158 1744.68 25.1784 1744.26 25.1038 1743.99C25.0184 1743.7 24.8638 1743.49 24.6398 1743.38C24.4051 1743.25 24.0531 1743.19 23.5838 1743.19H22.0318C21.6798 1743.19 21.4184 1743.24 21.2478 1743.35C21.0664 1743.45 20.9438 1743.65 20.8798 1743.94C20.8158 1744.23 20.7838 1744.67 20.7838 1745.27L20.7838 1747.35H23.5838C24.0531 1747.35 24.4051 1747.28 24.6398 1747.15C24.8638 1747.03 25.0184 1746.82 25.1038 1746.53C25.1784 1746.24 25.2158 1745.81 25.2158 1745.25Z" fill="#155268"/>
<path d="M20.8478 1755V1750.55H21.9998V1755H20.8478Z" fill="#155268"/>
<path d="M26.1598 1760.3C26.1598 1760.77 26.1438 1761.15 26.1118 1761.45C26.0798 1761.74 26.0158 1762.05 25.9198 1762.38C25.8238 1762.73 25.6851 1763.01 25.5038 1763.22C25.3118 1763.43 25.0451 1763.6 24.7038 1763.74C24.3838 1763.88 23.9838 1763.94 23.5038 1763.94H18.2558C17.7758 1763.94 17.3544 1763.88 16.9918 1763.74C16.6291 1763.6 16.3411 1763.42 16.1278 1763.19C15.9464 1762.99 15.8024 1762.72 15.6958 1762.39C15.5784 1762.05 15.5038 1761.71 15.4718 1761.37C15.4504 1760.98 15.4398 1760.63 15.4398 1760.3C15.4398 1759.83 15.4558 1759.45 15.4878 1759.16C15.5198 1758.86 15.5838 1758.55 15.6798 1758.22C15.7864 1757.86 15.9358 1757.58 16.1278 1757.37C16.3198 1757.14 16.5918 1756.96 16.9438 1756.82C17.2958 1756.69 17.7278 1756.62 18.2398 1756.62H23.5038C23.9411 1756.62 24.3304 1756.69 24.6718 1756.82C25.0131 1756.96 25.2798 1757.14 25.4718 1757.37C25.6531 1757.58 25.8024 1757.85 25.9198 1758.18C26.0264 1758.52 26.0904 1758.85 26.1118 1759.19C26.1438 1759.49 26.1598 1759.86 26.1598 1760.3ZM25.2158 1760.26C25.2158 1759.7 25.1784 1759.26 25.1038 1758.95C25.0184 1758.64 24.8584 1758.42 24.6238 1758.28C24.3891 1758.14 24.0424 1758.07 23.5838 1758.07H18.1438C17.6424 1758.07 17.2691 1758.15 17.0238 1758.3C16.7678 1758.44 16.5971 1758.66 16.5118 1758.97C16.4264 1759.27 16.3838 1759.7 16.3838 1760.28C16.3838 1760.87 16.4264 1761.32 16.5118 1761.62C16.5971 1761.92 16.7678 1762.14 17.0238 1762.28C17.2691 1762.42 17.6424 1762.49 18.1438 1762.49H23.5838C24.0424 1762.49 24.3891 1762.42 24.6238 1762.28C24.8584 1762.13 25.0184 1761.9 25.1038 1761.59C25.1784 1761.28 25.2158 1760.84 25.2158 1760.26Z" fill="#155268"/>
<path d="M26.1598 1769.58C26.1598 1770.05 26.1438 1770.43 26.1118 1770.73C26.0798 1771.02 26.0158 1771.33 25.9198 1771.66C25.8238 1772.01 25.6851 1772.29 25.5038 1772.51C25.3118 1772.71 25.0451 1772.88 24.7038 1773.02C24.3838 1773.16 23.9838 1773.23 23.5038 1773.23H18.2558C17.7758 1773.23 17.3544 1773.16 16.9918 1773.02C16.6291 1772.88 16.3411 1772.7 16.1278 1772.47C15.9464 1772.27 15.8024 1772 15.6958 1771.67C15.5784 1771.33 15.5038 1770.99 15.4718 1770.65C15.4504 1770.27 15.4398 1769.91 15.4398 1769.58C15.4398 1769.11 15.4558 1768.73 15.4878 1768.44C15.5198 1768.14 15.5838 1767.83 15.6798 1767.5C15.7864 1767.15 15.9358 1766.86 16.1278 1766.65C16.3198 1766.43 16.5918 1766.24 16.9438 1766.11C17.2958 1765.97 17.7278 1765.9 18.2398 1765.9H23.5038C23.9411 1765.9 24.3304 1765.97 24.6718 1766.11C25.0131 1766.24 25.2798 1766.43 25.4718 1766.65C25.6531 1766.86 25.8024 1767.14 25.9198 1767.47C26.0264 1767.8 26.0904 1768.13 26.1118 1768.47C26.1438 1768.77 26.1598 1769.14 26.1598 1769.58ZM25.2158 1769.55C25.2158 1768.98 25.1784 1768.54 25.1038 1768.23C25.0184 1767.92 24.8584 1767.7 24.6238 1767.56C24.3891 1767.42 24.0424 1767.35 23.5838 1767.35H18.1438C17.6424 1767.35 17.2691 1767.43 17.0238 1767.58C16.7678 1767.72 16.5971 1767.94 16.5118 1768.25C16.4264 1768.55 16.3838 1768.99 16.3838 1769.56C16.3838 1770.15 16.4264 1770.6 16.5118 1770.91C16.5971 1771.2 16.7678 1771.42 17.0238 1771.56C17.2691 1771.7 17.6424 1771.77 18.1438 1771.77H23.5838C24.0424 1771.77 24.3891 1771.7 24.6238 1771.56C24.8584 1771.41 25.0184 1771.18 25.1038 1770.87C25.1784 1770.56 25.2158 1770.12 25.2158 1769.55Z" fill="#155268"/>
<path d="M24.1438 1782.33C23.8451 1782.33 23.5678 1782.28 23.3118 1782.19C23.0451 1782.08 22.8211 1781.95 22.6398 1781.79C22.4904 1781.66 22.3304 1781.47 22.1598 1781.21C21.9784 1780.94 21.8291 1780.69 21.7118 1780.46C21.6051 1780.26 21.4824 1779.99 21.3438 1779.66L20.5758 1777.93C20.2771 1777.25 19.8131 1776.91 19.1838 1776.91H17.7598C17.2691 1776.91 16.9438 1777.06 16.7838 1777.36C16.6131 1777.65 16.5278 1778.18 16.5278 1778.92C16.5278 1779.66 16.6398 1780.67 16.8638 1781.96H15.7438C15.5411 1780.89 15.4398 1779.77 15.4398 1778.62C15.4398 1777.47 15.6158 1776.64 15.9678 1776.12C16.3091 1775.61 16.8851 1775.36 17.6958 1775.36H19.3918C19.7758 1775.36 20.0958 1775.42 20.3518 1775.55C20.5971 1775.68 20.8211 1775.88 21.0238 1776.17C21.2158 1776.45 21.4344 1776.86 21.6798 1777.4L22.7838 1779.8C23.1038 1780.51 23.5731 1780.86 24.1918 1780.86H24.8798V1775.36H25.9998V1782.33H24.1438Z" fill="#155268"/>
<path d="M30.16 1571.55C30.16 1572.42 30.064 1573.43 29.872 1574.61H28.72C28.976 1573.37 29.104 1572.34 29.104 1571.5C29.104 1570.85 29.0133 1570.38 28.832 1570.08C28.64 1569.77 28.3307 1569.62 27.904 1569.62H25.84C25.392 1569.62 25.104 1569.81 24.976 1570.19C24.9227 1570.37 24.8907 1570.54 24.88 1570.7C24.8587 1570.85 24.848 1571.05 24.848 1571.3V1574.37H19.616L19.616 1568.38H20.704L20.704 1572.93H23.856V1570.53C23.856 1570.1 23.9093 1569.72 24.016 1569.39C24.112 1569.06 24.2827 1568.77 24.528 1568.51C24.7947 1568.25 25.1413 1568.11 25.568 1568.11H27.936C28.3093 1568.11 28.64 1568.18 28.928 1568.32C29.2053 1568.45 29.424 1568.62 29.584 1568.85C29.7333 1569.05 29.856 1569.31 29.952 1569.63C30.048 1569.94 30.1067 1570.25 30.128 1570.56C30.1493 1570.94 30.16 1571.27 30.16 1571.55Z" fill="#155268"/>
<path d="M26.1597 1395.28C26.1597 1395.75 26.1437 1396.13 26.1117 1396.42C26.0797 1396.71 26.0157 1397 25.9197 1397.31C25.8237 1397.64 25.6851 1397.91 25.5037 1398.1C25.3117 1398.29 25.0451 1398.45 24.7037 1398.58C24.3624 1398.71 23.9624 1398.77 23.5037 1398.77H18.2557C17.7757 1398.77 17.3544 1398.69 16.9917 1398.55C16.6291 1398.39 16.3411 1398.18 16.1277 1397.94C15.9464 1397.72 15.8024 1397.44 15.6957 1397.07C15.5784 1396.71 15.5037 1396.35 15.4717 1395.99C15.4504 1395.58 15.4397 1395.21 15.4397 1394.88C15.4397 1394.23 15.4877 1393.36 15.5837 1392.26H16.6717C16.5331 1393.36 16.4637 1394.3 16.4637 1395.09C16.4637 1395.69 16.5064 1396.14 16.5917 1396.45C16.6771 1396.76 16.8477 1396.99 17.1037 1397.14C17.3491 1397.28 17.7224 1397.35 18.2237 1397.35H19.8557V1394.99C19.8557 1394.46 19.8664 1394.06 19.8877 1393.79C19.9091 1393.53 19.9517 1393.24 20.0157 1392.95C20.0797 1392.65 20.1864 1392.43 20.3357 1392.29C20.4851 1392.14 20.6984 1392.01 20.9757 1391.91C21.2424 1391.81 21.5784 1391.76 21.9837 1391.76H23.5037C24.6557 1391.76 25.4024 1392.12 25.7437 1392.85C25.9037 1393.2 26.0104 1393.55 26.0637 1393.91C26.1277 1394.26 26.1597 1394.72 26.1597 1395.28ZM25.2157 1395.25C25.2157 1394.68 25.1784 1394.26 25.1037 1393.99C25.0184 1393.7 24.8637 1393.49 24.6397 1393.38C24.4051 1393.25 24.0531 1393.19 23.5837 1393.19H22.0317C21.6797 1393.19 21.4184 1393.24 21.2477 1393.35C21.0664 1393.45 20.9437 1393.65 20.8797 1393.94C20.8157 1394.23 20.7837 1394.67 20.7837 1395.27V1397.35H23.5837C24.0531 1397.35 24.4051 1397.28 24.6397 1397.15C24.8637 1397.03 25.0184 1396.82 25.1037 1396.53C25.1784 1396.24 25.2157 1395.81 25.2157 1395.25Z" fill="#155268"/>
<path d="M20.8477 1405V1400.55H21.9997V1405H20.8477Z" fill="#155268"/>
<path d="M26.1597 1410.3C26.1597 1410.77 26.1437 1411.15 26.1117 1411.45C26.0797 1411.74 26.0157 1412.05 25.9197 1412.38C25.8237 1412.73 25.6851 1413.01 25.5037 1413.22C25.3117 1413.43 25.0451 1413.6 24.7037 1413.74C24.3837 1413.88 23.9837 1413.94 23.5037 1413.94H18.2557C17.7757 1413.94 17.3544 1413.88 16.9917 1413.74C16.6291 1413.6 16.3411 1413.42 16.1277 1413.19C15.9464 1412.99 15.8024 1412.72 15.6957 1412.39C15.5784 1412.05 15.5037 1411.71 15.4717 1411.37C15.4504 1410.98 15.4397 1410.63 15.4397 1410.3C15.4397 1409.83 15.4557 1409.45 15.4877 1409.16C15.5197 1408.86 15.5837 1408.55 15.6797 1408.22C15.7864 1407.86 15.9357 1407.58 16.1277 1407.37C16.3197 1407.14 16.5917 1406.96 16.9437 1406.82C17.2957 1406.69 17.7277 1406.62 18.2397 1406.62H23.5037C23.9411 1406.62 24.3304 1406.69 24.6717 1406.82C25.0131 1406.96 25.2797 1407.14 25.4717 1407.37C25.6531 1407.58 25.8024 1407.85 25.9197 1408.18C26.0264 1408.52 26.0904 1408.85 26.1117 1409.19C26.1437 1409.49 26.1597 1409.86 26.1597 1410.3ZM25.2157 1410.26C25.2157 1409.7 25.1784 1409.26 25.1037 1408.95C25.0184 1408.64 24.8584 1408.42 24.6237 1408.28C24.3891 1408.14 24.0424 1408.07 23.5837 1408.07H18.1437C17.6424 1408.07 17.2691 1408.15 17.0237 1408.3C16.7677 1408.44 16.5971 1408.66 16.5117 1408.97C16.4264 1409.27 16.3837 1409.7 16.3837 1410.28C16.3837 1410.87 16.4264 1411.32 16.5117 1411.62C16.5971 1411.92 16.7677 1412.14 17.0237 1412.28C17.2691 1412.42 17.6424 1412.49 18.1437 1412.49H23.5837C24.0424 1412.49 24.3891 1412.42 24.6237 1412.28C24.8584 1412.13 25.0184 1411.9 25.1037 1411.59C25.1784 1411.28 25.2157 1410.84 25.2157 1410.26Z" fill="#155268"/>
<path d="M26.1597 1419.58C26.1597 1420.05 26.1437 1420.43 26.1117 1420.73C26.0797 1421.02 26.0157 1421.33 25.9197 1421.66C25.8237 1422.01 25.6851 1422.29 25.5037 1422.51C25.3117 1422.71 25.0451 1422.88 24.7037 1423.02C24.3837 1423.16 23.9837 1423.23 23.5037 1423.23H18.2557C17.7757 1423.23 17.3544 1423.16 16.9917 1423.02C16.6291 1422.88 16.3411 1422.7 16.1277 1422.47C15.9464 1422.27 15.8024 1422 15.6957 1421.67C15.5784 1421.33 15.5037 1420.99 15.4717 1420.65C15.4504 1420.27 15.4397 1419.91 15.4397 1419.58C15.4397 1419.11 15.4557 1418.73 15.4877 1418.44C15.5197 1418.14 15.5837 1417.83 15.6797 1417.5C15.7864 1417.15 15.9357 1416.86 16.1277 1416.65C16.3197 1416.43 16.5917 1416.24 16.9437 1416.11C17.2957 1415.97 17.7277 1415.9 18.2397 1415.9H23.5037C23.9411 1415.9 24.3304 1415.97 24.6717 1416.11C25.0131 1416.24 25.2797 1416.43 25.4717 1416.65C25.6531 1416.86 25.8024 1417.14 25.9197 1417.47C26.0264 1417.8 26.0904 1418.13 26.1117 1418.47C26.1437 1418.77 26.1597 1419.14 26.1597 1419.58ZM25.2157 1419.55C25.2157 1418.98 25.1784 1418.54 25.1037 1418.23C25.0184 1417.92 24.8584 1417.7 24.6237 1417.56C24.3891 1417.42 24.0424 1417.35 23.5837 1417.35H18.1437C17.6424 1417.35 17.2691 1417.43 17.0237 1417.58C16.7677 1417.72 16.5971 1417.94 16.5117 1418.25C16.4264 1418.55 16.3837 1418.99 16.3837 1419.56C16.3837 1420.15 16.4264 1420.6 16.5117 1420.91C16.5971 1421.2 16.7677 1421.42 17.0237 1421.56C17.2691 1421.7 17.6424 1421.77 18.1437 1421.77H23.5837C24.0424 1421.77 24.3891 1421.7 24.6237 1421.56C24.8584 1421.41 25.0184 1421.18 25.1037 1420.87C25.1784 1420.56 25.2157 1420.12 25.2157 1419.55Z" fill="#155268"/>
<path d="M24.1437 1432.33C23.8451 1432.33 23.5677 1432.28 23.3117 1432.19C23.0451 1432.08 22.8211 1431.95 22.6397 1431.79C22.4904 1431.66 22.3304 1431.47 22.1597 1431.21C21.9784 1430.94 21.8291 1430.69 21.7117 1430.46C21.6051 1430.26 21.4824 1429.99 21.3437 1429.66L20.5757 1427.93C20.2771 1427.25 19.8131 1426.91 19.1837 1426.91H17.7597C17.2691 1426.91 16.9437 1427.06 16.7837 1427.36C16.6131 1427.65 16.5277 1428.18 16.5277 1428.92C16.5277 1429.66 16.6397 1430.67 16.8637 1431.96H15.7437C15.5411 1430.89 15.4397 1429.77 15.4397 1428.62C15.4397 1427.47 15.6157 1426.64 15.9677 1426.12C16.3091 1425.61 16.8851 1425.36 17.6957 1425.36H19.3917C19.7757 1425.36 20.0957 1425.42 20.3517 1425.55C20.5971 1425.68 20.8211 1425.88 21.0237 1426.17C21.2157 1426.45 21.4344 1426.86 21.6797 1427.4L22.7837 1429.8C23.1037 1430.51 23.5731 1430.86 24.1917 1430.86H24.8797V1425.36H25.9997V1432.33H24.1437Z" fill="#155268"/>
<path d="M27.728 1220V1225.17H26.464L19.616 1220.46V1218.67H26.624V1217.55H27.728V1218.67H30V1220H27.728ZM26.624 1220H20.88L26.624 1223.89V1220Z" fill="#155268"/>
<path d="M26.1597 1045.28C26.1597 1045.75 26.1437 1046.13 26.1117 1046.42C26.0797 1046.71 26.0157 1047 25.9197 1047.31C25.8237 1047.64 25.6851 1047.91 25.5037 1048.1C25.3117 1048.29 25.0451 1048.45 24.7037 1048.58C24.3624 1048.71 23.9624 1048.77 23.5037 1048.77H18.2557C17.7757 1048.77 17.3544 1048.69 16.9917 1048.55C16.6291 1048.39 16.3411 1048.18 16.1277 1047.94C15.9464 1047.72 15.8024 1047.44 15.6957 1047.07C15.5784 1046.71 15.5037 1046.35 15.4717 1045.99C15.4504 1045.58 15.4397 1045.21 15.4397 1044.88C15.4397 1044.23 15.4877 1043.36 15.5837 1042.26H16.6717C16.5331 1043.36 16.4637 1044.3 16.4637 1045.09C16.4637 1045.69 16.5064 1046.14 16.5917 1046.45C16.6771 1046.76 16.8477 1046.99 17.1037 1047.14C17.3491 1047.28 17.7224 1047.35 18.2237 1047.35H19.8557V1044.99C19.8557 1044.46 19.8664 1044.06 19.8877 1043.79C19.9091 1043.53 19.9517 1043.24 20.0157 1042.95C20.0797 1042.65 20.1864 1042.43 20.3357 1042.29C20.4851 1042.14 20.6984 1042.01 20.9757 1041.91C21.2424 1041.81 21.5784 1041.76 21.9837 1041.76H23.5037C24.6557 1041.76 25.4024 1042.12 25.7437 1042.85C25.9037 1043.2 26.0104 1043.55 26.0637 1043.91C26.1277 1044.26 26.1597 1044.72 26.1597 1045.28ZM25.2157 1045.25C25.2157 1044.68 25.1784 1044.26 25.1037 1043.99C25.0184 1043.7 24.8637 1043.49 24.6397 1043.38C24.4051 1043.25 24.0531 1043.19 23.5837 1043.19H22.0317C21.6797 1043.19 21.4184 1043.24 21.2477 1043.35C21.0664 1043.45 20.9437 1043.65 20.8797 1043.94C20.8157 1044.23 20.7837 1044.67 20.7837 1045.27V1047.35H23.5837C24.0531 1047.35 24.4051 1047.28 24.6397 1047.15C24.8637 1047.03 25.0184 1046.82 25.1037 1046.53C25.1784 1046.24 25.2157 1045.81 25.2157 1045.25Z" fill="#155268"/>
<path d="M20.8477 1055V1050.55H21.9997V1055H20.8477Z" fill="#155268"/>
<path d="M26.1597 1060.3C26.1597 1060.77 26.1437 1061.15 26.1117 1061.45C26.0797 1061.74 26.0157 1062.05 25.9197 1062.38C25.8237 1062.73 25.6851 1063.01 25.5037 1063.22C25.3117 1063.43 25.0451 1063.6 24.7037 1063.74C24.3837 1063.88 23.9837 1063.94 23.5037 1063.94H18.2557C17.7757 1063.94 17.3544 1063.88 16.9917 1063.74C16.6291 1063.6 16.3411 1063.42 16.1277 1063.19C15.9464 1062.99 15.8024 1062.72 15.6957 1062.39C15.5784 1062.05 15.5037 1061.71 15.4717 1061.37C15.4504 1060.98 15.4397 1060.63 15.4397 1060.3C15.4397 1059.83 15.4557 1059.45 15.4877 1059.16C15.5197 1058.86 15.5837 1058.55 15.6797 1058.22C15.7864 1057.86 15.9357 1057.58 16.1277 1057.37C16.3197 1057.14 16.5917 1056.96 16.9437 1056.82C17.2957 1056.69 17.7277 1056.62 18.2397 1056.62H23.5037C23.9411 1056.62 24.3304 1056.69 24.6717 1056.82C25.0131 1056.96 25.2797 1057.14 25.4717 1057.37C25.6531 1057.58 25.8024 1057.85 25.9197 1058.18C26.0264 1058.52 26.0904 1058.85 26.1117 1059.19C26.1437 1059.49 26.1597 1059.86 26.1597 1060.3ZM25.2157 1060.26C25.2157 1059.7 25.1784 1059.26 25.1037 1058.95C25.0184 1058.64 24.8584 1058.42 24.6237 1058.28C24.3891 1058.14 24.0424 1058.07 23.5837 1058.07H18.1437C17.6424 1058.07 17.2691 1058.15 17.0237 1058.3C16.7677 1058.44 16.5971 1058.66 16.5117 1058.97C16.4264 1059.27 16.3837 1059.7 16.3837 1060.28C16.3837 1060.87 16.4264 1061.32 16.5117 1061.62C16.5971 1061.92 16.7677 1062.14 17.0237 1062.28C17.2691 1062.42 17.6424 1062.49 18.1437 1062.49H23.5837C24.0424 1062.49 24.3891 1062.42 24.6237 1062.28C24.8584 1062.13 25.0184 1061.9 25.1037 1061.59C25.1784 1061.28 25.2157 1060.84 25.2157 1060.26Z" fill="#155268"/>
<path d="M26.1597 1069.58C26.1597 1070.05 26.1437 1070.43 26.1117 1070.73C26.0797 1071.02 26.0157 1071.33 25.9197 1071.66C25.8237 1072.01 25.6851 1072.29 25.5037 1072.51C25.3117 1072.71 25.0451 1072.88 24.7037 1073.02C24.3837 1073.16 23.9837 1073.23 23.5037 1073.23H18.2557C17.7757 1073.23 17.3544 1073.16 16.9917 1073.02C16.6291 1072.88 16.3411 1072.7 16.1277 1072.47C15.9464 1072.27 15.8024 1072 15.6957 1071.67C15.5784 1071.33 15.5037 1070.99 15.4717 1070.65C15.4504 1070.27 15.4397 1069.91 15.4397 1069.58C15.4397 1069.11 15.4557 1068.73 15.4877 1068.44C15.5197 1068.14 15.5837 1067.83 15.6797 1067.5C15.7864 1067.15 15.9357 1066.86 16.1277 1066.65C16.3197 1066.43 16.5917 1066.24 16.9437 1066.11C17.2957 1065.97 17.7277 1065.9 18.2397 1065.9H23.5037C23.9411 1065.9 24.3304 1065.97 24.6717 1066.11C25.0131 1066.24 25.2797 1066.43 25.4717 1066.65C25.6531 1066.86 25.8024 1067.14 25.9197 1067.47C26.0264 1067.8 26.0904 1068.13 26.1117 1068.47C26.1437 1068.77 26.1597 1069.14 26.1597 1069.58ZM25.2157 1069.55C25.2157 1068.98 25.1784 1068.54 25.1037 1068.23C25.0184 1067.92 24.8584 1067.7 24.6237 1067.56C24.3891 1067.42 24.0424 1067.35 23.5837 1067.35H18.1437C17.6424 1067.35 17.2691 1067.43 17.0237 1067.58C16.7677 1067.72 16.5971 1067.94 16.5117 1068.25C16.4264 1068.55 16.3837 1068.99 16.3837 1069.56C16.3837 1070.15 16.4264 1070.6 16.5117 1070.91C16.5971 1071.2 16.7677 1071.42 17.0237 1071.56C17.2691 1071.7 17.6424 1071.77 18.1437 1071.77H23.5837C24.0424 1071.77 24.3891 1071.7 24.6237 1071.56C24.8584 1071.41 25.0184 1071.18 25.1037 1070.87C25.1784 1070.56 25.2157 1070.12 25.2157 1069.55Z" fill="#155268"/>
<path d="M24.1437 1082.33C23.8451 1082.33 23.5677 1082.28 23.3117 1082.19C23.0451 1082.08 22.8211 1081.95 22.6397 1081.79C22.4904 1081.66 22.3304 1081.47 22.1597 1081.21C21.9784 1080.94 21.8291 1080.69 21.7117 1080.46C21.6051 1080.26 21.4824 1079.99 21.3437 1079.66L20.5757 1077.93C20.2771 1077.25 19.8131 1076.91 19.1837 1076.91H17.7597C17.2691 1076.91 16.9437 1077.06 16.7837 1077.36C16.6131 1077.65 16.5277 1078.18 16.5277 1078.92C16.5277 1079.66 16.6397 1080.67 16.8637 1081.96H15.7437C15.5411 1080.89 15.4397 1079.77 15.4397 1078.62C15.4397 1077.47 15.6157 1076.64 15.9677 1076.12C16.3091 1075.61 16.8851 1075.36 17.6957 1075.36H19.3917C19.7757 1075.36 20.0957 1075.42 20.3517 1075.55C20.5971 1075.68 20.8211 1075.88 21.0237 1076.17C21.2157 1076.45 21.4344 1076.86 21.6797 1077.4L22.7837 1079.8C23.1037 1080.51 23.5731 1080.86 24.1917 1080.86H24.8797L24.8797 1075.36H25.9997L25.9997 1082.33H24.1437Z" fill="#155268"/>
<path d="M30.16 871.744C30.16 872.64 30.0586 873.648 29.856 874.768H28.704C28.9706 873.498 29.104 872.437 29.104 871.584C29.104 870.165 28.704 869.456 27.904 869.456H26.128C25.6906 869.456 25.4026 869.69 25.264 870.16C25.2106 870.384 25.1786 870.586 25.168 870.768C25.1466 870.938 25.136 871.162 25.136 871.44V873.44H24.144V871.712C24.144 871.434 24.1386 871.21 24.128 871.04C24.1066 870.869 24.064 870.672 24 870.448C23.9466 870.213 23.8453 870.032 23.696 869.904C23.5466 869.776 23.3546 869.712 23.12 869.712H21.264C20.72 869.712 20.448 870.352 20.448 871.632C20.448 872.485 20.5333 873.461 20.704 874.56H19.6C19.504 873.642 19.456 872.672 19.456 871.648C19.456 870.464 19.5893 869.605 19.856 869.072C20.112 868.528 20.5546 868.256 21.184 868.256H23.184C23.5146 868.256 23.792 868.389 24.016 868.656C24.2293 868.922 24.368 869.264 24.432 869.68H24.496C24.5386 869.424 24.5866 869.216 24.64 869.056C24.6826 868.885 24.752 868.704 24.848 868.512C25.04 868.138 25.376 867.952 25.856 867.952H27.936C28.2986 867.952 28.624 868.032 28.912 868.192C29.2 868.352 29.424 868.554 29.584 868.8C29.7333 869.013 29.856 869.296 29.952 869.648C30.0373 870 30.096 870.346 30.128 870.688C30.1493 871.093 30.16 871.445 30.16 871.744Z" fill="#155268"/>
<path d="M26.1597 695.281C26.1597 695.75 26.1437 696.129 26.1117 696.417C26.0797 696.705 26.0157 697.004 25.9197 697.313C25.8237 697.644 25.685 697.905 25.5037 698.097C25.3117 698.289 25.045 698.449 24.7037 698.577C24.3624 698.705 23.9624 698.769 23.5037 698.769H18.2557C17.7757 698.769 17.3544 698.694 16.9917 698.545C16.629 698.385 16.341 698.182 16.1277 697.937C15.9464 697.724 15.8024 697.436 15.6957 697.073C15.5784 696.71 15.5037 696.348 15.4717 695.985C15.4504 695.58 15.4397 695.212 15.4397 694.881C15.4397 694.23 15.4877 693.356 15.5837 692.257H16.6717C16.533 693.356 16.4637 694.3 16.4637 695.089C16.4637 695.686 16.5064 696.14 16.5917 696.449C16.677 696.758 16.8477 696.988 17.1037 697.137C17.349 697.276 17.7224 697.345 18.2237 697.345H19.8557V694.993C19.8557 694.46 19.8664 694.06 19.8877 693.793C19.909 693.526 19.9517 693.244 20.0157 692.945C20.0797 692.646 20.1864 692.428 20.3357 692.289C20.485 692.14 20.6984 692.012 20.9757 691.905C21.2424 691.809 21.5784 691.761 21.9837 691.761H23.5037C24.6557 691.761 25.4024 692.124 25.7437 692.849C25.9037 693.201 26.0104 693.553 26.0637 693.905C26.1277 694.257 26.1597 694.716 26.1597 695.281ZM25.2157 695.249C25.2157 694.684 25.1784 694.262 25.1037 693.985C25.0184 693.697 24.8637 693.494 24.6397 693.377C24.405 693.249 24.053 693.185 23.5837 693.185H22.0317C21.6797 693.185 21.4184 693.238 21.2477 693.345C21.0664 693.452 20.9437 693.649 20.8797 693.937C20.8157 694.225 20.7837 694.668 20.7837 695.265V697.345H23.5837C24.053 697.345 24.405 697.281 24.6397 697.153C24.8637 697.025 25.0184 696.817 25.1037 696.529C25.1784 696.241 25.2157 695.814 25.2157 695.249Z" fill="#155268"/>
<path d="M20.8477 704.999V700.551H21.9997V704.999H20.8477Z" fill="#155268"/>
<path d="M26.1597 710.297C26.1597 710.766 26.1437 711.15 26.1117 711.449C26.0797 711.737 26.0157 712.046 25.9197 712.377C25.8237 712.729 25.685 713.011 25.5037 713.225C25.3117 713.427 25.045 713.598 24.7037 713.737C24.3837 713.875 23.9837 713.945 23.5037 713.945H18.2557C17.7757 713.945 17.3544 713.875 16.9917 713.737C16.629 713.598 16.341 713.417 16.1277 713.193C15.9464 712.99 15.8024 712.723 15.6957 712.393C15.5784 712.051 15.5037 711.71 15.4717 711.369C15.4504 710.985 15.4397 710.627 15.4397 710.297C15.4397 709.827 15.4557 709.449 15.4877 709.161C15.5197 708.862 15.5837 708.547 15.6797 708.217C15.7864 707.865 15.9357 707.582 16.1277 707.369C16.3197 707.145 16.5917 706.963 16.9437 706.825C17.2957 706.686 17.7277 706.617 18.2397 706.617H23.5037C23.941 706.617 24.3304 706.686 24.6717 706.825C25.013 706.963 25.2797 707.145 25.4717 707.369C25.653 707.582 25.8024 707.854 25.9197 708.185C26.0264 708.515 26.0904 708.851 26.1117 709.193C26.1437 709.491 26.1597 709.859 26.1597 710.297ZM25.2157 710.265C25.2157 709.699 25.1784 709.262 25.1037 708.953C25.0184 708.643 24.8584 708.419 24.6237 708.281C24.389 708.142 24.0424 708.073 23.5837 708.073H18.1437C17.6424 708.073 17.269 708.147 17.0237 708.297C16.7677 708.435 16.597 708.659 16.5117 708.969C16.4264 709.267 16.3837 709.705 16.3837 710.281C16.3837 710.867 16.4264 711.315 16.5117 711.625C16.597 711.923 16.7677 712.142 17.0237 712.281C17.269 712.419 17.6424 712.489 18.1437 712.489H23.5837C24.0424 712.489 24.389 712.419 24.6237 712.281C24.8584 712.131 25.0184 711.902 25.1037 711.593C25.1784 711.283 25.2157 710.841 25.2157 710.265Z" fill="#155268"/>
<path d="M26.1597 719.578C26.1597 720.047 26.1437 720.431 26.1117 720.73C26.0797 721.018 26.0157 721.327 25.9197 721.658C25.8237 722.01 25.685 722.293 25.5037 722.506C25.3117 722.709 25.045 722.879 24.7037 723.018C24.3837 723.157 23.9837 723.226 23.5037 723.226H18.2557C17.7757 723.226 17.3544 723.157 16.9917 723.018C16.629 722.879 16.341 722.698 16.1277 722.474C15.9464 722.271 15.8024 722.005 15.6957 721.674C15.5784 721.333 15.5037 720.991 15.4717 720.65C15.4504 720.266 15.4397 719.909 15.4397 719.578C15.4397 719.109 15.4557 718.73 15.4877 718.442C15.5197 718.143 15.5837 717.829 15.6797 717.498C15.7864 717.146 15.9357 716.863 16.1277 716.65C16.3197 716.426 16.5917 716.245 16.9437 716.106C17.2957 715.967 17.7277 715.898 18.2397 715.898H23.5037C23.941 715.898 24.3304 715.967 24.6717 716.106C25.013 716.245 25.2797 716.426 25.4717 716.65C25.653 716.863 25.8024 717.135 25.9197 717.466C26.0264 717.797 26.0904 718.133 26.1117 718.474C26.1437 718.773 26.1597 719.141 26.1597 719.578ZM25.2157 719.546C25.2157 718.981 25.1784 718.543 25.1037 718.234C25.0184 717.925 24.8584 717.701 24.6237 717.562C24.389 717.423 24.0424 717.354 23.5837 717.354H18.1437C17.6424 717.354 17.269 717.429 17.0237 717.578C16.7677 717.717 16.597 717.941 16.5117 718.25C16.4264 718.549 16.3837 718.986 16.3837 719.562C16.3837 720.149 16.4264 720.597 16.5117 720.906C16.597 721.205 16.7677 721.423 17.0237 721.562C17.269 721.701 17.6424 721.77 18.1437 721.77H23.5837C24.0424 721.77 24.389 721.701 24.6237 721.562C24.8584 721.413 25.0184 721.183 25.1037 720.874C25.1784 720.565 25.2157 720.122 25.2157 719.546Z" fill="#155268"/>
<path d="M24.1437 732.331C23.845 732.331 23.5677 732.283 23.3117 732.187C23.045 732.081 22.821 731.947 22.6397 731.787C22.4904 731.659 22.3304 731.467 22.1597 731.211C21.9784 730.945 21.829 730.694 21.7117 730.459C21.605 730.257 21.4824 729.99 21.3437 729.659L20.5757 727.931C20.277 727.249 19.813 726.907 19.1837 726.907H17.7597C17.269 726.907 16.9437 727.057 16.7837 727.355C16.613 727.654 16.5277 728.177 16.5277 728.923C16.5277 729.659 16.6397 730.673 16.8637 731.963H15.7437C15.541 730.886 15.4397 729.771 15.4397 728.619C15.4397 727.467 15.6157 726.635 15.9677 726.123C16.309 725.611 16.885 725.355 17.6957 725.355H19.3917C19.7757 725.355 20.0957 725.419 20.3517 725.547C20.597 725.675 20.821 725.883 21.0237 726.171C21.2157 726.449 21.4344 726.859 21.6797 727.403L22.7837 729.803C23.1037 730.507 23.573 730.859 24.1917 730.859H24.8797L24.8797 725.355H25.9997L25.9997 732.331H24.1437Z" fill="#155268"/>
<path d="M28.1439 524.848C27.8453 524.848 27.5679 524.8 27.3119 524.704C27.0453 524.597 26.8213 524.464 26.6399 524.304C26.4906 524.176 26.3306 523.984 26.1599 523.728C25.9786 523.461 25.8293 523.21 25.7119 522.976C25.6053 522.773 25.4826 522.507 25.3439 522.176L24.5759 520.448C24.2773 519.765 23.8133 519.424 23.1839 519.424H21.7599C21.2693 519.424 20.9439 519.573 20.7839 519.872C20.6133 520.17 20.5279 520.693 20.5279 521.44C20.5279 522.176 20.6399 523.189 20.8639 524.48H19.7439C19.5413 523.402 19.4399 522.288 19.4399 521.136C19.4399 519.984 19.6159 519.152 19.9679 518.64C20.3093 518.128 20.8853 517.872 21.6959 517.872H23.3919C23.7759 517.872 24.0959 517.936 24.3519 518.064C24.5973 518.192 24.8213 518.4 25.0239 518.688C25.2159 518.965 25.4346 519.376 25.6799 519.92L26.7839 522.32C27.1039 523.024 27.5733 523.376 28.1919 523.376H28.8799V517.872H29.9999V524.848H28.1439Z" fill="#155268"/>
<path d="M26.1597 345.281C26.1597 345.75 26.1437 346.129 26.1117 346.417C26.0797 346.705 26.0157 347.004 25.9197 347.313C25.8237 347.644 25.685 347.905 25.5037 348.097C25.3117 348.289 25.045 348.449 24.7037 348.577C24.3624 348.705 23.9624 348.769 23.5037 348.769H18.2557C17.7757 348.769 17.3544 348.694 16.9917 348.545C16.629 348.385 16.341 348.182 16.1277 347.937C15.9464 347.724 15.8024 347.436 15.6957 347.073C15.5784 346.71 15.5037 346.348 15.4717 345.985C15.4504 345.58 15.4397 345.212 15.4397 344.881C15.4397 344.23 15.4877 343.356 15.5837 342.257H16.6717C16.533 343.356 16.4637 344.3 16.4637 345.089C16.4637 345.686 16.5064 346.14 16.5917 346.449C16.677 346.758 16.8477 346.988 17.1037 347.137C17.349 347.276 17.7224 347.345 18.2237 347.345H19.8557V344.993C19.8557 344.46 19.8664 344.06 19.8877 343.793C19.909 343.526 19.9517 343.244 20.0157 342.945C20.0797 342.646 20.1864 342.428 20.3357 342.289C20.485 342.14 20.6984 342.012 20.9757 341.905C21.2424 341.809 21.5784 341.761 21.9837 341.761H23.5037C24.6557 341.761 25.4024 342.124 25.7437 342.849C25.9037 343.201 26.0104 343.553 26.0637 343.905C26.1277 344.257 26.1597 344.716 26.1597 345.281ZM25.2157 345.249C25.2157 344.684 25.1784 344.262 25.1037 343.985C25.0184 343.697 24.8637 343.494 24.6397 343.377C24.405 343.249 24.053 343.185 23.5837 343.185H22.0317C21.6797 343.185 21.4184 343.238 21.2477 343.345C21.0664 343.452 20.9437 343.649 20.8797 343.937C20.8157 344.225 20.7837 344.668 20.7837 345.265V347.345H23.5837C24.053 347.345 24.405 347.281 24.6397 347.153C24.8637 347.025 25.0184 346.817 25.1037 346.529C25.1784 346.241 25.2157 345.814 25.2157 345.249Z" fill="#155268"/>
<path d="M20.8477 355V350.552H21.9997V355H20.8477Z" fill="#155268"/>
<path d="M26.1597 360.297C26.1597 360.766 26.1437 361.15 26.1117 361.449C26.0797 361.737 26.0157 362.046 25.9197 362.377C25.8237 362.729 25.685 363.011 25.5037 363.225C25.3117 363.427 25.045 363.598 24.7037 363.737C24.3837 363.875 23.9837 363.945 23.5037 363.945H18.2557C17.7757 363.945 17.3544 363.875 16.9917 363.737C16.629 363.598 16.341 363.417 16.1277 363.193C15.9464 362.99 15.8024 362.723 15.6957 362.393C15.5784 362.051 15.5037 361.71 15.4717 361.369C15.4504 360.985 15.4397 360.627 15.4397 360.297C15.4397 359.827 15.4557 359.449 15.4877 359.161C15.5197 358.862 15.5837 358.547 15.6797 358.217C15.7864 357.865 15.9357 357.582 16.1277 357.369C16.3197 357.145 16.5917 356.963 16.9437 356.825C17.2957 356.686 17.7277 356.617 18.2397 356.617H23.5037C23.941 356.617 24.3304 356.686 24.6717 356.825C25.013 356.963 25.2797 357.145 25.4717 357.369C25.653 357.582 25.8024 357.854 25.9197 358.185C26.0264 358.515 26.0904 358.851 26.1117 359.193C26.1437 359.491 26.1597 359.859 26.1597 360.297ZM25.2157 360.265C25.2157 359.699 25.1784 359.262 25.1037 358.953C25.0184 358.643 24.8584 358.419 24.6237 358.281C24.389 358.142 24.0424 358.073 23.5837 358.073H18.1437C17.6424 358.073 17.269 358.147 17.0237 358.297C16.7677 358.435 16.597 358.659 16.5117 358.969C16.4264 359.267 16.3837 359.705 16.3837 360.281C16.3837 360.867 16.4264 361.315 16.5117 361.625C16.597 361.923 16.7677 362.142 17.0237 362.281C17.269 362.419 17.6424 362.489 18.1437 362.489H23.5837C24.0424 362.489 24.389 362.419 24.6237 362.281C24.8584 362.131 25.0184 361.902 25.1037 361.593C25.1784 361.283 25.2157 360.841 25.2157 360.265Z" fill="#155268"/>
<path d="M26.1597 369.578C26.1597 370.047 26.1437 370.431 26.1117 370.73C26.0797 371.018 26.0157 371.327 25.9197 371.658C25.8237 372.01 25.685 372.293 25.5037 372.506C25.3117 372.709 25.045 372.879 24.7037 373.018C24.3837 373.157 23.9837 373.226 23.5037 373.226H18.2557C17.7757 373.226 17.3544 373.157 16.9917 373.018C16.629 372.879 16.341 372.698 16.1277 372.474C15.9464 372.271 15.8024 372.005 15.6957 371.674C15.5784 371.333 15.5037 370.991 15.4717 370.65C15.4504 370.266 15.4397 369.909 15.4397 369.578C15.4397 369.109 15.4557 368.73 15.4877 368.442C15.5197 368.143 15.5837 367.829 15.6797 367.498C15.7864 367.146 15.9357 366.863 16.1277 366.65C16.3197 366.426 16.5917 366.245 16.9437 366.106C17.2957 365.967 17.7277 365.898 18.2397 365.898H23.5037C23.941 365.898 24.3304 365.967 24.6717 366.106C25.013 366.245 25.2797 366.426 25.4717 366.65C25.653 366.863 25.8024 367.135 25.9197 367.466C26.0264 367.797 26.0904 368.133 26.1117 368.474C26.1437 368.773 26.1597 369.141 26.1597 369.578ZM25.2157 369.546C25.2157 368.981 25.1784 368.543 25.1037 368.234C25.0184 367.925 24.8584 367.701 24.6237 367.562C24.389 367.423 24.0424 367.354 23.5837 367.354H18.1437C17.6424 367.354 17.269 367.429 17.0237 367.578C16.7677 367.717 16.597 367.941 16.5117 368.25C16.4264 368.549 16.3837 368.986 16.3837 369.562C16.3837 370.149 16.4264 370.597 16.5117 370.906C16.597 371.205 16.7677 371.423 17.0237 371.562C17.269 371.701 17.6424 371.77 18.1437 371.77H23.5837C24.0424 371.77 24.389 371.701 24.6237 371.562C24.8584 371.413 25.0184 371.183 25.1037 370.874C25.1784 370.565 25.2157 370.122 25.2157 369.546Z" fill="#155268"/>
<path d="M24.1437 382.331C23.845 382.331 23.5677 382.283 23.3117 382.187C23.045 382.08 22.821 381.947 22.6397 381.787C22.4904 381.659 22.3304 381.467 22.1597 381.211C21.9784 380.944 21.829 380.694 21.7117 380.459C21.605 380.256 21.4824 379.99 21.3437 379.659L20.5757 377.931C20.277 377.248 19.813 376.907 19.1837 376.907H17.7597C17.269 376.907 16.9437 377.056 16.7837 377.355C16.613 377.654 16.5277 378.176 16.5277 378.923C16.5277 379.659 16.6397 380.672 16.8637 381.963H15.7437C15.541 380.886 15.4397 379.771 15.4397 378.619C15.4397 377.467 15.6157 376.635 15.9677 376.123C16.309 375.611 16.885 375.355 17.6957 375.355H19.3917C19.7757 375.355 20.0957 375.419 20.3517 375.547C20.597 375.675 20.821 375.883 21.0237 376.171C21.2157 376.448 21.4344 376.859 21.6797 377.403L22.7837 379.803C23.1037 380.507 23.573 380.859 24.1917 380.859H24.8797L24.8797 375.355H25.9997L25.9997 382.331H24.1437Z" fill="#155268"/>
<path d="M21.0559 170.896L23.1199 174.048H21.8079L19.6159 170.88V169.504L29.9999 169.504V170.896L21.0559 170.896Z" fill="#155268"/>
</g>
</g>
<defs>
<clipPath id="clip0_1391_9915">
<rect width="2442" height="48" fill="white" transform="translate(0 2442) rotate(-90)"/>
</clipPath>
</defs>
</svg>
