<svg width="48" height="2423" viewBox="0 0 48 2423" fill="none" xmlns="http://www.w3.org/2000/svg">
<g clip-path="url(#clip0_1391_9890)">
<g opacity="0.5">
<path d="M19.616 2203.41L19.616 2201.85H30V2203.41H19.616Z" fill="#155268"/>
<path d="M30.16 2208.98C30.16 2209.83 30.1014 2210.47 29.984 2210.88H28.944C29.1147 2210.24 29.2 2209.67 29.2 2209.17C29.2 2208.76 29.1627 2208.44 29.088 2208.23C29.0134 2208.01 28.88 2207.86 28.688 2207.78C28.4854 2207.69 28.1814 2207.65 27.776 2207.65H19.616L19.616 2206.1H27.712C28.3734 2206.1 28.88 2206.2 29.232 2206.39C29.5734 2206.58 29.8134 2206.88 29.952 2207.28C30.0907 2207.69 30.16 2208.25 30.16 2208.98Z" fill="#155268"/>
<path d="M30.16 2216.62C30.16 2217.19 30.1227 2217.69 30.048 2218.11C29.9734 2218.53 29.8454 2218.94 29.664 2219.34C29.472 2219.77 29.1787 2220.1 28.784 2220.34C28.3894 2220.56 27.9094 2220.67 27.344 2220.67H19.616L19.616 2219.18H27.328C27.9787 2219.18 28.4427 2218.97 28.72 2218.53C28.9867 2218.09 29.12 2217.45 29.12 2216.59C29.12 2215.74 28.9867 2215.1 28.72 2214.69C28.4427 2214.26 27.9787 2214.05 27.328 2214.05H19.616L19.616 2212.56H27.344C29.2214 2212.56 30.16 2213.91 30.16 2216.62Z" fill="#155268"/>
<path d="M19.616 2229.63L19.616 2222.49H20.704L20.704 2228.07H24.096V2223.02H25.184V2228.07H30V2229.63H19.616Z" fill="#155268"/>
<path d="M25.808 2128.94L19.616 2132.7L19.616 2130.92L24.496 2128.16L19.616 2125.39L19.616 2123.61L25.76 2127.39H30V2128.94H25.808Z" fill="#155268"/>
<path d="M20.704 2138.28L20.704 2141.8H19.616L19.616 2133.21H20.704L20.704 2136.72H30V2138.28H20.704Z" fill="#155268"/>
<path d="M19.616 2150.13L19.616 2143.15H20.704L20.704 2148.57H24.096L24.096 2143.68H25.184L25.184 2148.57H28.912V2142.99H30V2150.13H19.616Z" fill="#155268"/>
<path d="M19.616 2159.08L19.616 2151.94H20.704L20.704 2157.53H24.096L24.096 2152.47H25.184L25.184 2157.53H30V2159.08H19.616Z" fill="#155268"/>
<path d="M19.616 2166.49L19.616 2164.7L30 2160.67V2162.28L26.848 2163.47V2167.92L30 2169.08V2170.62L19.616 2166.49ZM25.776 2163.85L21.088 2165.61V2165.76L25.776 2167.52V2163.85Z" fill="#155268"/>
<path d="M30.16 2175.63C30.16 2176.52 30.0747 2177.57 29.904 2178.8H28.608C28.8747 2177.56 29.008 2176.48 29.008 2175.54C29.008 2174.75 28.9227 2174.17 28.752 2173.81C28.5707 2173.45 28.24 2173.27 27.76 2173.27H26.416C25.968 2173.27 25.6534 2173.39 25.472 2173.65C25.2907 2173.91 25.2 2174.35 25.2 2174.99V2176.21C25.2 2177.22 24.9974 2177.94 24.592 2178.37C24.1867 2178.8 23.5574 2179.01 22.704 2179.01H21.872C21.3067 2179.01 20.848 2178.89 20.496 2178.64C20.144 2178.39 19.8827 2177.96 19.712 2177.38C19.5414 2176.78 19.456 2175.96 19.456 2174.93C19.456 2174.24 19.5147 2173.35 19.632 2172.26H20.8C20.6187 2173.47 20.528 2174.4 20.528 2175.04C20.528 2176.03 20.624 2176.69 20.816 2177.01C21.0187 2177.34 21.3547 2177.51 21.824 2177.51H23.008C23.3707 2177.51 23.6374 2177.38 23.808 2177.12C23.968 2176.85 24.048 2176.4 24.048 2175.76V2174.51C24.048 2173.8 24.1334 2173.24 24.304 2172.85C24.4747 2172.44 24.736 2172.16 25.088 2172C25.4294 2171.83 25.8934 2171.75 26.48 2171.75H27.232C27.968 2171.75 28.5494 2171.88 28.976 2172.16C29.4027 2172.43 29.7067 2172.84 29.888 2173.41C30.0694 2173.97 30.16 2174.72 30.16 2175.63Z" fill="#155268"/>
<path d="M19.616 2080.13L19.616 2077.81L28.256 2074.48L28.272 2074.43L19.616 2071.28L19.616 2069.04H30V2070.4H21.216V2070.48L30 2073.82L30 2075.21L21.216 2078.65V2078.73H30V2080.13H19.616Z" fill="#155268"/>
<path d="M19.616 2088.44L19.616 2086.89H28.912V2081.78H30V2088.44H19.616Z" fill="#155268"/>
<path d="M19.616 2092.67L19.616 2091.12H30V2092.67H19.616Z" fill="#155268"/>
<path d="M19.616 2101.63L19.616 2094.49H20.704L20.704 2100.07H24.096V2095.02H25.184V2100.07H30V2101.63H19.616Z" fill="#155268"/>
<path d="M30.16 2014.68C30.16 2015.54 30.064 2016.56 29.872 2017.73H28.72C28.976 2016.5 29.104 2015.46 29.104 2014.63C29.104 2013.98 29.0134 2013.5 28.832 2013.21C28.64 2012.9 28.3307 2012.74 27.904 2012.74H25.84C25.392 2012.74 25.104 2012.93 24.976 2013.32C24.9227 2013.5 24.8907 2013.67 24.88 2013.83C24.8587 2013.98 24.848 2014.18 24.848 2014.42L24.848 2017.49H19.616L19.616 2011.51H20.704L20.704 2016.05H23.856L23.856 2013.65C23.856 2013.23 23.9094 2012.85 24.016 2012.52C24.112 2012.19 24.2827 2011.89 24.528 2011.64C24.7947 2011.37 25.1414 2011.24 25.568 2011.24H27.936C28.3094 2011.24 28.64 2011.31 28.928 2011.45C29.2054 2011.57 29.424 2011.75 29.584 2011.97C29.7334 2012.18 29.856 2012.44 29.952 2012.76C30.048 2013.07 30.1067 2013.38 30.128 2013.69C30.1494 2014.07 30.16 2014.4 30.16 2014.68Z" fill="#155268"/>
<path d="M30.16 2024.15C30.16 2025.05 30.0587 2026.05 29.856 2027.17H28.704C28.9707 2025.91 29.104 2024.84 29.104 2023.99C29.104 2022.57 28.704 2021.86 27.904 2021.86H26.128C25.6907 2021.86 25.4027 2022.1 25.264 2022.57C25.2107 2022.79 25.1787 2022.99 25.168 2023.17C25.1467 2023.35 25.136 2023.57 25.136 2023.85V2025.85H24.144V2024.12C24.144 2023.84 24.1387 2023.62 24.128 2023.45C24.1067 2023.28 24.064 2023.08 24 2022.85C23.9467 2022.62 23.8454 2022.44 23.696 2022.31C23.5467 2022.18 23.3547 2022.12 23.12 2022.12H21.264C20.72 2022.12 20.448 2022.76 20.448 2024.04C20.448 2024.89 20.5334 2025.87 20.704 2026.97H19.6C19.504 2026.05 19.456 2025.08 19.456 2024.05C19.456 2022.87 19.5894 2022.01 19.856 2021.48C20.112 2020.93 20.5547 2020.66 21.184 2020.66H23.184C23.5147 2020.66 23.792 2020.8 24.016 2021.06C24.2294 2021.33 24.368 2021.67 24.432 2022.09H24.496C24.5387 2021.83 24.5867 2021.62 24.64 2021.46C24.6827 2021.29 24.752 2021.11 24.848 2020.92C25.04 2020.55 25.376 2020.36 25.856 2020.36H27.936C28.2987 2020.36 28.624 2020.44 28.912 2020.6C29.2 2020.76 29.424 2020.96 29.584 2021.21C29.7334 2021.42 29.856 2021.7 29.952 2022.05C30.0374 2022.41 30.096 2022.75 30.128 2023.09C30.1494 2023.5 30.16 2023.85 30.16 2024.15Z" fill="#155268"/>
<path d="M30.16 2033.06C30.16 2033.53 30.144 2033.92 30.112 2034.22C30.08 2034.5 30.016 2034.81 29.92 2035.14C29.824 2035.5 29.6854 2035.78 29.504 2035.99C29.312 2036.19 29.0454 2036.37 28.704 2036.5C28.384 2036.64 27.984 2036.71 27.504 2036.71H22.256C21.776 2036.71 21.3547 2036.64 20.992 2036.5C20.6294 2036.37 20.3414 2036.18 20.128 2035.96C19.9467 2035.76 19.8027 2035.49 19.696 2035.16C19.5787 2034.82 19.504 2034.48 19.472 2034.14C19.4507 2033.75 19.44 2033.39 19.44 2033.06C19.44 2032.59 19.456 2032.22 19.488 2031.93C19.52 2031.63 19.584 2031.31 19.68 2030.98C19.7867 2030.63 19.936 2030.35 20.128 2030.14C20.32 2029.91 20.592 2029.73 20.944 2029.59C21.296 2029.45 21.728 2029.38 22.24 2029.38H27.504C27.9414 2029.38 28.3307 2029.45 28.672 2029.59C29.0134 2029.73 29.28 2029.91 29.472 2030.14C29.6534 2030.35 29.8027 2030.62 29.92 2030.95C30.0267 2031.28 30.0907 2031.62 30.112 2031.96C30.144 2032.26 30.16 2032.63 30.16 2033.06ZM29.216 2033.03C29.216 2032.47 29.1787 2032.03 29.104 2031.72C29.0187 2031.41 28.8587 2031.19 28.624 2031.05C28.3894 2030.91 28.0427 2030.84 27.584 2030.84H22.144C21.6427 2030.84 21.2694 2030.91 21.024 2031.06C20.768 2031.2 20.5974 2031.43 20.512 2031.74C20.4267 2032.03 20.384 2032.47 20.384 2033.05C20.384 2033.63 20.4267 2034.08 20.512 2034.39C20.5974 2034.69 20.768 2034.91 21.024 2035.05C21.2694 2035.19 21.6427 2035.26 22.144 2035.26H27.584C28.0427 2035.26 28.3894 2035.19 28.624 2035.05C28.8587 2034.9 29.0187 2034.67 29.104 2034.36C29.1787 2034.05 29.216 2033.61 29.216 2033.03Z" fill="#155268"/>
<path d="M30.16 2042.52C30.16 2043.39 30.064 2044.4 29.872 2045.58H28.72C28.976 2044.34 29.104 2043.31 29.104 2042.47C29.104 2041.82 29.0134 2041.35 28.832 2041.05C28.64 2040.74 28.3307 2040.59 27.904 2040.59H25.84C25.392 2040.59 25.104 2040.78 24.976 2041.16C24.9227 2041.34 24.8907 2041.51 24.88 2041.67C24.8587 2041.82 24.848 2042.02 24.848 2042.27V2045.34H19.616L19.616 2039.35H20.704L20.704 2043.9H23.856V2041.5C23.856 2041.07 23.9094 2040.69 24.016 2040.36C24.112 2040.03 24.2827 2039.74 24.528 2039.48C24.7947 2039.21 25.1414 2039.08 25.568 2039.08H27.936C28.3094 2039.08 28.64 2039.15 28.928 2039.29C29.2054 2039.42 29.424 2039.59 29.584 2039.82C29.7334 2040.02 29.856 2040.28 29.952 2040.6C30.048 2040.91 30.1067 2041.22 30.128 2041.53C30.1494 2041.91 30.16 2042.24 30.16 2042.52Z" fill="#155268"/>
<path d="M19.616 1595.66L19.616 1594.1H30L30 1595.66H19.616Z" fill="#155268"/>
<path d="M30.16 1601.23C30.16 1602.08 30.1013 1602.72 29.984 1603.13H28.944C29.1147 1602.49 29.2 1601.92 29.2 1601.42C29.2 1601.01 29.1627 1600.69 29.088 1600.48C29.0133 1600.26 28.88 1600.11 28.688 1600.03C28.4853 1599.94 28.1813 1599.9 27.776 1599.9H19.616L19.616 1598.35H27.712C28.3733 1598.35 28.88 1598.45 29.232 1598.64C29.5733 1598.83 29.8133 1599.13 29.952 1599.53C30.0907 1599.94 30.16 1600.5 30.16 1601.23Z" fill="#155268"/>
<path d="M30.16 1608.87C30.16 1609.44 30.1227 1609.94 30.048 1610.36C29.9733 1610.78 29.8453 1611.19 29.664 1611.59C29.472 1612.02 29.1787 1612.35 28.784 1612.59C28.3893 1612.81 27.9093 1612.92 27.344 1612.92H19.616L19.616 1611.43H27.328C27.9787 1611.43 28.4427 1611.22 28.72 1610.78C28.9867 1610.34 29.12 1609.7 29.12 1608.84C29.12 1607.99 28.9867 1607.35 28.72 1606.94C28.4427 1606.51 27.9787 1606.3 27.328 1606.3H19.616L19.616 1604.81H27.344C29.2213 1604.81 30.16 1606.16 30.16 1608.87Z" fill="#155268"/>
<path d="M19.616 1621.88L19.616 1614.74H20.704L20.704 1620.32H24.096V1615.27H25.184V1620.32H30V1621.88H19.616Z" fill="#155268"/>
<path d="M25.808 1521.19L19.616 1524.95L19.616 1523.17L24.496 1520.41L19.616 1517.64L19.616 1515.86L25.76 1519.64H30V1521.19H25.808Z" fill="#155268"/>
<path d="M20.704 1530.53L20.704 1534.05H19.616L19.616 1525.46H20.704L20.704 1528.97H30L30 1530.53H20.704Z" fill="#155268"/>
<path d="M19.616 1542.38L19.616 1535.4H20.704L20.704 1540.82H24.096V1535.93H25.184V1540.82H28.912V1535.24H30V1542.38H19.616Z" fill="#155268"/>
<path d="M19.616 1551.33L19.616 1544.19H20.704L20.704 1549.78H24.096L24.096 1544.72H25.184L25.184 1549.78H30V1551.33H19.616Z" fill="#155268"/>
<path d="M19.616 1558.74L19.616 1556.95L30 1552.92V1554.53L26.848 1555.72L26.848 1560.17L30 1561.33V1562.87L19.616 1558.74ZM25.776 1556.1L21.088 1557.86V1558.01L25.776 1559.77L25.776 1556.1Z" fill="#155268"/>
<path d="M30.16 1567.88C30.16 1568.77 30.0747 1569.82 29.904 1571.05H28.608C28.8747 1569.81 29.008 1568.73 29.008 1567.79C29.008 1567 28.9227 1566.42 28.752 1566.06C28.5707 1565.7 28.24 1565.52 27.76 1565.52H26.416C25.968 1565.52 25.6533 1565.64 25.472 1565.9C25.2907 1566.16 25.2 1566.6 25.2 1567.24L25.2 1568.46C25.2 1569.47 24.9973 1570.19 24.592 1570.62C24.1867 1571.05 23.5573 1571.26 22.704 1571.26H21.872C21.3067 1571.26 20.848 1571.14 20.496 1570.89C20.144 1570.64 19.8827 1570.21 19.712 1569.63C19.5413 1569.03 19.456 1568.21 19.456 1567.18C19.456 1566.49 19.5147 1565.6 19.632 1564.51H20.8C20.6187 1565.72 20.528 1566.65 20.528 1567.29C20.528 1568.28 20.624 1568.94 20.816 1569.26C21.0187 1569.59 21.3547 1569.76 21.824 1569.76H23.008C23.3707 1569.76 23.6373 1569.63 23.808 1569.37C23.968 1569.1 24.048 1568.65 24.048 1568.01L24.048 1566.76C24.048 1566.05 24.1333 1565.49 24.304 1565.1C24.4747 1564.69 24.736 1564.41 25.088 1564.25C25.4293 1564.08 25.8933 1564 26.48 1564H27.232C27.968 1564 28.5493 1564.13 28.976 1564.41C29.4027 1564.68 29.7067 1565.09 29.888 1565.66C30.0693 1566.22 30.16 1566.97 30.16 1567.88Z" fill="#155268"/>
<path d="M19.616 1472.38L19.616 1470.06L28.256 1466.73L28.272 1466.68L19.616 1463.53L19.616 1461.29H30V1462.65H21.216V1462.73L30 1466.07V1467.46L21.216 1470.9V1470.98H30V1472.38H19.616Z" fill="#155268"/>
<path d="M19.616 1480.69L19.616 1479.14H28.912V1474.03H30V1480.69H19.616Z" fill="#155268"/>
<path d="M19.616 1484.92L19.616 1483.37H30V1484.92H19.616Z" fill="#155268"/>
<path d="M19.616 1493.88L19.616 1486.74H20.704L20.704 1492.32H24.096L24.096 1487.27H25.184L25.184 1492.32H30V1493.88H19.616Z" fill="#155268"/>
<path d="M30.16 1406.93C30.16 1407.79 30.064 1408.81 29.872 1409.98H28.72C28.976 1408.75 29.104 1407.71 29.104 1406.88C29.104 1406.23 29.0133 1405.75 28.832 1405.46C28.64 1405.15 28.3307 1404.99 27.904 1404.99H25.84C25.392 1404.99 25.104 1405.18 24.976 1405.57C24.9227 1405.75 24.8907 1405.92 24.88 1406.08C24.8587 1406.23 24.848 1406.43 24.848 1406.67V1409.74H19.616L19.616 1403.76H20.704L20.704 1408.3H23.856V1405.9C23.856 1405.48 23.9093 1405.1 24.016 1404.77C24.112 1404.44 24.2827 1404.14 24.528 1403.89C24.7947 1403.62 25.1413 1403.49 25.568 1403.49H27.936C28.3093 1403.49 28.64 1403.56 28.928 1403.7C29.2053 1403.82 29.424 1404 29.584 1404.22C29.7333 1404.43 29.856 1404.69 29.952 1405.01C30.048 1405.32 30.1067 1405.63 30.128 1405.94C30.1493 1406.32 30.16 1406.65 30.16 1406.93Z" fill="#155268"/>
<path d="M30.16 1416.4C30.16 1417.3 30.0587 1418.3 29.856 1419.42H28.704C28.9707 1418.16 29.104 1417.09 29.104 1416.24C29.104 1414.82 28.704 1414.11 27.904 1414.11H26.128C25.6907 1414.11 25.4027 1414.35 25.264 1414.82C25.2107 1415.04 25.1787 1415.24 25.168 1415.42C25.1467 1415.6 25.136 1415.82 25.136 1416.1V1418.1H24.144V1416.37C24.144 1416.09 24.1387 1415.87 24.128 1415.7C24.1067 1415.53 24.064 1415.33 24 1415.1C23.9467 1414.87 23.8453 1414.69 23.696 1414.56C23.5467 1414.43 23.3547 1414.37 23.12 1414.37H21.264C20.72 1414.37 20.448 1415.01 20.448 1416.29C20.448 1417.14 20.5333 1418.12 20.704 1419.22H19.6C19.504 1418.3 19.456 1417.33 19.456 1416.3C19.456 1415.12 19.5893 1414.26 19.856 1413.73C20.112 1413.18 20.5547 1412.91 21.184 1412.91H23.184C23.5147 1412.91 23.792 1413.05 24.016 1413.31C24.2293 1413.58 24.368 1413.92 24.432 1414.34H24.496C24.5387 1414.08 24.5867 1413.87 24.64 1413.71C24.6827 1413.54 24.752 1413.36 24.848 1413.17C25.04 1412.8 25.376 1412.61 25.856 1412.61H27.936C28.2987 1412.61 28.624 1412.69 28.912 1412.85C29.2 1413.01 29.424 1413.21 29.584 1413.46C29.7333 1413.67 29.856 1413.95 29.952 1414.3C30.0373 1414.66 30.096 1415 30.128 1415.34C30.1493 1415.75 30.16 1416.1 30.16 1416.4Z" fill="#155268"/>
<path d="M30.16 1425.31C30.16 1425.78 30.144 1426.17 30.112 1426.47C30.08 1426.75 30.016 1427.06 29.92 1427.39C29.824 1427.75 29.6853 1428.03 29.504 1428.24C29.312 1428.44 29.0453 1428.62 28.704 1428.75C28.384 1428.89 27.984 1428.96 27.504 1428.96H22.256C21.776 1428.96 21.3547 1428.89 20.992 1428.75C20.6293 1428.62 20.3413 1428.43 20.128 1428.21C19.9467 1428.01 19.8027 1427.74 19.696 1427.41C19.5787 1427.07 19.504 1426.73 19.472 1426.39C19.4507 1426 19.44 1425.64 19.44 1425.31C19.44 1424.84 19.456 1424.47 19.488 1424.18C19.52 1423.88 19.584 1423.56 19.68 1423.23C19.7867 1422.88 19.936 1422.6 20.128 1422.39C20.32 1422.16 20.592 1421.98 20.944 1421.84C21.296 1421.7 21.728 1421.63 22.24 1421.63H27.504C27.9413 1421.63 28.3307 1421.7 28.672 1421.84C29.0133 1421.98 29.28 1422.16 29.472 1422.39C29.6533 1422.6 29.8027 1422.87 29.92 1423.2C30.0267 1423.53 30.0907 1423.87 30.112 1424.21C30.144 1424.51 30.16 1424.88 30.16 1425.31ZM29.216 1425.28C29.216 1424.72 29.1787 1424.28 29.104 1423.97C29.0187 1423.66 28.8587 1423.44 28.624 1423.3C28.3893 1423.16 28.0427 1423.09 27.584 1423.09H22.144C21.6427 1423.09 21.2693 1423.16 21.024 1423.31C20.768 1423.45 20.5973 1423.68 20.512 1423.99C20.4267 1424.28 20.384 1424.72 20.384 1425.3C20.384 1425.88 20.4267 1426.33 20.512 1426.64C20.5973 1426.94 20.768 1427.16 21.024 1427.3C21.2693 1427.44 21.6427 1427.51 22.144 1427.51H27.584C28.0427 1427.51 28.3893 1427.44 28.624 1427.3C28.8587 1427.15 29.0187 1426.92 29.104 1426.61C29.1787 1426.3 29.216 1425.86 29.216 1425.28Z" fill="#155268"/>
<path d="M30.16 1434.77C30.16 1435.64 30.064 1436.65 29.872 1437.83H28.72C28.976 1436.59 29.104 1435.56 29.104 1434.72C29.104 1434.07 29.0133 1433.6 28.832 1433.3C28.64 1432.99 28.3307 1432.84 27.904 1432.84H25.84C25.392 1432.84 25.104 1433.03 24.976 1433.41C24.9227 1433.59 24.8907 1433.76 24.88 1433.92C24.8587 1434.07 24.848 1434.27 24.848 1434.52L24.848 1437.59H19.616L19.616 1431.6H20.704L20.704 1436.15H23.856V1433.75C23.856 1433.32 23.9093 1432.94 24.016 1432.61C24.112 1432.28 24.2827 1431.99 24.528 1431.73C24.7947 1431.46 25.1413 1431.33 25.568 1431.33H27.936C28.3093 1431.33 28.64 1431.4 28.928 1431.54C29.2053 1431.67 29.424 1431.84 29.584 1432.07C29.7333 1432.27 29.856 1432.53 29.952 1432.85C30.048 1433.16 30.1067 1433.47 30.128 1433.78C30.1493 1434.16 30.16 1434.49 30.16 1434.77Z" fill="#155268"/>
<path d="M19.616 987.906L19.616 986.354L30 986.354V987.906H19.616Z" fill="#155268"/>
<path d="M30.16 993.48C30.16 994.333 30.1013 994.968 29.984 995.384H28.944C29.1146 994.744 29.2 994.173 29.2 993.672C29.2 993.256 29.1626 992.941 29.088 992.728C29.0133 992.514 28.88 992.365 28.688 992.28C28.4853 992.194 28.1813 992.152 27.776 992.152H19.616L19.616 990.6H27.712C28.3733 990.6 28.88 990.696 29.232 990.888C29.5733 991.08 29.8133 991.378 29.952 991.784C30.0906 992.189 30.16 992.754 30.16 993.48Z" fill="#155268"/>
<path d="M30.16 1001.12C30.16 1001.69 30.1226 1002.19 30.048 1002.61C29.9733 1003.03 29.8453 1003.44 29.664 1003.84C29.472 1004.27 29.1786 1004.6 28.784 1004.84C28.3893 1005.06 27.9093 1005.17 27.344 1005.17H19.616L19.616 1003.68H27.328C27.9786 1003.68 28.4426 1003.47 28.72 1003.03C28.9866 1002.59 29.12 1001.95 29.12 1001.09C29.12 1000.24 28.9866 999.604 28.72 999.188C28.4426 998.761 27.9786 998.548 27.328 998.548H19.616L19.616 997.06H27.344C29.2213 997.06 30.16 998.415 30.16 1001.12Z" fill="#155268"/>
<path d="M19.616 1014.13L19.616 1006.99H20.704L20.704 1012.57H24.096L24.096 1007.52H25.184L25.184 1012.57L30 1012.57V1014.13H19.616Z" fill="#155268"/>
<path d="M25.808 913.44L19.616 917.2L19.616 915.424L24.496 912.656L19.616 909.888L19.616 908.112L25.76 911.888H30V913.44H25.808Z" fill="#155268"/>
<path d="M20.704 922.784L20.704 926.304H19.616L19.616 917.712H20.704L20.704 921.216H30V922.784H20.704Z" fill="#155268"/>
<path d="M19.616 934.625L19.616 927.649H20.704L20.704 933.073H24.096V928.177H25.184V933.073L28.912 933.073V927.489H30V934.625H19.616Z" fill="#155268"/>
<path d="M19.616 943.578L19.616 936.442H20.704L20.704 942.026H24.096V936.97H25.184V942.026L30 942.026V943.578H19.616Z" fill="#155268"/>
<path d="M19.616 950.992L19.616 949.2L30 945.168V946.784L26.848 947.968V952.416L30 953.584V955.12L19.616 950.992ZM25.776 948.352L21.088 950.112L21.088 950.256L25.776 952.016V948.352Z" fill="#155268"/>
<path d="M30.16 960.133C30.16 961.019 30.0746 962.075 29.904 963.301H28.608C28.8746 962.064 29.008 960.976 29.008 960.037C29.008 959.248 28.9226 958.672 28.752 958.309C28.5706 957.947 28.24 957.765 27.76 957.765H26.416C25.968 957.765 25.6533 957.893 25.472 958.149C25.2906 958.405 25.2 958.853 25.2 959.493V960.709C25.2 961.723 24.9973 962.443 24.592 962.869C24.1866 963.296 23.5573 963.509 22.704 963.509H21.872C21.3066 963.509 20.848 963.387 20.496 963.141C20.144 962.885 19.8826 962.464 19.712 961.877C19.5413 961.28 19.456 960.464 19.456 959.429C19.456 958.736 19.5146 957.845 19.632 956.757H20.8C20.6186 957.973 20.528 958.901 20.528 959.541C20.528 960.533 20.624 961.189 20.816 961.509C21.0186 961.84 21.3546 962.005 21.824 962.005H23.008C23.3706 962.005 23.6373 961.877 23.808 961.621C23.968 961.354 24.048 960.901 24.048 960.261V959.013C24.048 958.299 24.1333 957.744 24.304 957.349C24.4746 956.944 24.736 956.661 25.088 956.501C25.4293 956.33 25.8933 956.245 26.48 956.245H27.232C27.968 956.245 28.5493 956.384 28.976 956.661C29.4026 956.928 29.7066 957.344 29.888 957.909C30.0693 958.475 30.16 959.216 30.16 960.133Z" fill="#155268"/>
<path d="M19.616 864.625L19.616 862.305L28.256 858.977L28.272 858.929L19.616 855.777L19.616 853.537H30V854.897H21.216V854.977L30 858.321V859.713L21.216 863.153V863.233H30V864.625H19.616Z" fill="#155268"/>
<path d="M19.616 872.938L19.616 871.386L28.912 871.386V866.282H30V872.938H19.616Z" fill="#155268"/>
<path d="M19.616 877.172L19.616 875.62L30 875.62V877.172H19.616Z" fill="#155268"/>
<path d="M19.616 886.125L19.616 878.989H20.704L20.704 884.573H24.096L24.096 879.517H25.184L25.184 884.573L30 884.573V886.125H19.616Z" fill="#155268"/>
<path d="M30.16 799.177C30.16 800.041 30.064 801.06 29.872 802.233H28.72C28.976 800.996 29.104 799.961 29.104 799.129C29.104 798.479 29.0133 798.004 28.832 797.705C28.64 797.396 28.3306 797.241 27.904 797.241H25.84C25.392 797.241 25.104 797.433 24.976 797.817C24.9226 797.999 24.8906 798.169 24.88 798.329C24.8586 798.479 24.848 798.676 24.848 798.921V801.993H19.616L19.616 796.009H20.704L20.704 800.553H23.856V798.153C23.856 797.727 23.9093 797.348 24.016 797.017C24.112 796.687 24.2826 796.393 24.528 796.137C24.7946 795.871 25.1413 795.737 25.568 795.737H27.936C28.3093 795.737 28.64 795.807 28.928 795.945C29.2053 796.073 29.424 796.249 29.584 796.473C29.7333 796.676 29.856 796.937 29.952 797.257C30.048 797.567 30.1066 797.876 30.128 798.185C30.1493 798.569 30.16 798.9 30.16 799.177Z" fill="#155268"/>
<path d="M30.16 808.651C30.16 809.547 30.0586 810.555 29.856 811.675H28.704C28.9706 810.405 29.104 809.344 29.104 808.491C29.104 807.072 28.704 806.363 27.904 806.363H26.128C25.6906 806.363 25.4026 806.597 25.264 807.067C25.2106 807.291 25.1786 807.493 25.168 807.675C25.1466 807.845 25.136 808.069 25.136 808.347V810.347H24.144V808.619C24.144 808.341 24.1386 808.117 24.128 807.947C24.1066 807.776 24.064 807.579 24 807.355C23.9466 807.12 23.8453 806.939 23.696 806.811C23.5466 806.683 23.3546 806.619 23.12 806.619H21.264C20.72 806.619 20.448 807.259 20.448 808.539C20.448 809.392 20.5333 810.368 20.704 811.467H19.6C19.504 810.549 19.456 809.579 19.456 808.555C19.456 807.371 19.5893 806.512 19.856 805.979C20.112 805.435 20.5546 805.163 21.184 805.163H23.184C23.5146 805.163 23.792 805.296 24.016 805.563C24.2293 805.829 24.368 806.171 24.432 806.587H24.496C24.5386 806.331 24.5866 806.123 24.64 805.963C24.6826 805.792 24.752 805.611 24.848 805.419C25.04 805.045 25.376 804.859 25.856 804.859H27.936C28.2986 804.859 28.624 804.939 28.912 805.099C29.2 805.259 29.424 805.461 29.584 805.707C29.7333 805.92 29.856 806.203 29.952 806.555C30.0373 806.907 30.096 807.253 30.128 807.595C30.1493 808 30.16 808.352 30.16 808.651Z" fill="#155268"/>
<path d="M30.16 817.564C30.16 818.033 30.144 818.417 30.112 818.716C30.08 819.004 30.016 819.313 29.92 819.644C29.824 819.996 29.6853 820.279 29.504 820.492C29.312 820.695 29.0453 820.865 28.704 821.004C28.384 821.143 27.984 821.212 27.504 821.212H22.256C21.776 821.212 21.3546 821.143 20.992 821.004C20.6293 820.865 20.3413 820.684 20.128 820.46C19.9466 820.257 19.8026 819.991 19.696 819.66C19.5786 819.319 19.504 818.977 19.472 818.636C19.4506 818.252 19.44 817.895 19.44 817.564C19.44 817.095 19.456 816.716 19.488 816.428C19.52 816.129 19.584 815.815 19.68 815.484C19.7866 815.132 19.936 814.849 20.128 814.636C20.32 814.412 20.592 814.231 20.944 814.092C21.296 813.953 21.728 813.884 22.24 813.884H27.504C27.9413 813.884 28.3306 813.953 28.672 814.092C29.0133 814.231 29.28 814.412 29.472 814.636C29.6533 814.849 29.8026 815.121 29.92 815.452C30.0266 815.783 30.0906 816.119 30.112 816.46C30.144 816.759 30.16 817.127 30.16 817.564ZM29.216 817.532C29.216 816.967 29.1786 816.529 29.104 816.22C29.0186 815.911 28.8586 815.687 28.624 815.548C28.3893 815.409 28.0426 815.34 27.584 815.34H22.144C21.6426 815.34 21.2693 815.415 21.024 815.564C20.768 815.703 20.5973 815.927 20.512 816.236C20.4266 816.535 20.384 816.972 20.384 817.548C20.384 818.135 20.4266 818.583 20.512 818.892C20.5973 819.191 20.768 819.409 21.024 819.548C21.2693 819.687 21.6426 819.756 22.144 819.756H27.584C28.0426 819.756 28.3893 819.687 28.624 819.548C28.8586 819.399 29.0186 819.169 29.104 818.86C29.1786 818.551 29.216 818.108 29.216 817.532Z" fill="#155268"/>
<path d="M30.16 827.021C30.16 827.885 30.064 828.904 29.872 830.077H28.72C28.976 828.84 29.104 827.805 29.104 826.973C29.104 826.323 29.0133 825.848 28.832 825.549C28.64 825.24 28.3306 825.085 27.904 825.085H25.84C25.392 825.085 25.104 825.277 24.976 825.661C24.9226 825.843 24.8906 826.013 24.88 826.173C24.8586 826.322 24.848 826.52 24.848 826.765V829.837H19.616L19.616 823.853H20.704L20.704 828.397H23.856L23.856 825.997C23.856 825.571 23.9093 825.192 24.016 824.861C24.112 824.531 24.2826 824.237 24.528 823.981C24.7946 823.715 25.1413 823.581 25.568 823.581H27.936C28.3093 823.581 28.64 823.651 28.928 823.789C29.2053 823.917 29.424 824.093 29.584 824.317C29.7333 824.52 29.856 824.781 29.952 825.101C30.048 825.411 30.1066 825.72 30.128 826.029C30.1493 826.413 30.16 826.744 30.16 827.021Z" fill="#155268"/>
<path d="M19.6159 380.156L19.6159 378.604H30V380.156H19.6159Z" fill="#155268"/>
<path d="M30.16 385.73C30.16 386.583 30.1013 387.218 29.984 387.634H28.944C29.1146 386.994 29.2 386.423 29.2 385.922C29.2 385.506 29.1626 385.191 29.088 384.978C29.0133 384.764 28.88 384.615 28.688 384.53C28.4853 384.444 28.1813 384.402 27.776 384.402H19.6159L19.6159 382.85H27.712C28.3733 382.85 28.88 382.946 29.232 383.138C29.5733 383.33 29.8133 383.628 29.952 384.034C30.0906 384.439 30.16 385.004 30.16 385.73Z" fill="#155268"/>
<path d="M30.16 393.374C30.16 393.939 30.1226 394.435 30.048 394.862C29.9733 395.278 29.8453 395.689 29.664 396.094C29.472 396.521 29.1786 396.851 28.784 397.086C28.3893 397.31 27.9093 397.422 27.344 397.422H19.616L19.616 395.934H27.328C27.9786 395.934 28.4426 395.715 28.72 395.278C28.9866 394.841 29.12 394.195 29.12 393.342C29.12 392.489 28.9866 391.854 28.72 391.438C28.4426 391.011 27.9786 390.798 27.328 390.798H19.6159L19.6159 389.31H27.344C29.2213 389.31 30.16 390.665 30.16 393.374Z" fill="#155268"/>
<path d="M19.616 406.375L19.616 399.239H20.704L20.704 404.823H24.096L24.096 399.767H25.184L25.184 404.823H30V406.375H19.616Z" fill="#155268"/>
<path d="M25.8079 305.691L19.6159 309.451L19.6159 307.675L24.4959 304.907L19.6159 302.139L19.6159 300.363L25.7599 304.139H29.9999V305.691H25.8079Z" fill="#155268"/>
<path d="M20.7039 315.034L20.7039 318.554H19.6159L19.6159 309.962H20.7039L20.7039 313.466H29.9999V315.034H20.7039Z" fill="#155268"/>
<path d="M19.6159 326.875L19.6159 319.899H20.7039L20.7039 325.323H24.0959L24.0959 320.427H25.1839L25.1839 325.323H28.9119V319.739H29.9999V326.875H19.6159Z" fill="#155268"/>
<path d="M19.6159 335.828L19.6159 328.692H20.7039L20.7039 334.276H24.0959V329.22H25.1839V334.276H29.9999V335.828H19.6159Z" fill="#155268"/>
<path d="M19.6159 343.242L19.6159 341.45L29.9999 337.418V339.034L26.8479 340.218V344.666L29.9999 345.834V347.37L19.6159 343.242ZM25.7759 340.602L21.0879 342.362V342.506L25.7759 344.266V340.602Z" fill="#155268"/>
<path d="M30.1599 352.383C30.1599 353.269 30.0746 354.325 29.9039 355.551H28.6079C28.8746 354.314 29.0079 353.226 29.0079 352.287C29.0079 351.498 28.9226 350.922 28.7519 350.559C28.5706 350.197 28.2399 350.015 27.7599 350.015H26.4159C25.9679 350.015 25.6533 350.143 25.4719 350.399C25.2906 350.655 25.1999 351.103 25.1999 351.743V352.959C25.1999 353.973 24.9973 354.693 24.5919 355.119C24.1866 355.546 23.5573 355.759 22.7039 355.759H21.8719C21.3066 355.759 20.8479 355.637 20.4959 355.391C20.1439 355.135 19.8826 354.714 19.7119 354.127C19.5413 353.53 19.4559 352.714 19.4559 351.679C19.4559 350.986 19.5146 350.095 19.6319 349.007H20.7999C20.6186 350.223 20.5279 351.151 20.5279 351.791C20.5279 352.783 20.6239 353.439 20.8159 353.759C21.0186 354.09 21.3546 354.255 21.8239 354.255H23.0079C23.3706 354.255 23.6373 354.127 23.8079 353.871C23.9679 353.605 24.0479 353.151 24.0479 352.511V351.263C24.0479 350.549 24.1333 349.994 24.3039 349.599C24.4746 349.194 24.7359 348.911 25.0879 348.751C25.4293 348.581 25.8933 348.495 26.4799 348.495H27.2319C27.9679 348.495 28.5493 348.634 28.9759 348.911C29.4026 349.178 29.7066 349.594 29.8879 350.159C30.0693 350.725 30.1599 351.466 30.1599 352.383Z" fill="#155268"/>
<path d="M19.6159 256.875L19.6159 254.555L28.2559 251.227L28.2719 251.179L19.6159 248.027L19.6159 245.787H29.9999V247.147H21.2159V247.227L29.9999 250.571V251.963L21.2159 255.403V255.483L29.9999 255.483V256.875H19.6159Z" fill="#155268"/>
<path d="M19.6159 265.188L19.6159 263.636H28.9119V258.532H29.9999L29.9999 265.188H19.6159Z" fill="#155268"/>
<path d="M19.6159 269.422L19.6159 267.87H29.9999V269.422H19.6159Z" fill="#155268"/>
<path d="M19.6159 278.375L19.6159 271.239H20.7039L20.7039 276.823H24.0959V271.767H25.1839V276.823H29.9999V278.375H19.6159Z" fill="#155268"/>
<path d="M30.1599 191.427C30.1599 192.291 30.0639 193.31 29.8719 194.483H28.7199C28.9759 193.246 29.1039 192.211 29.1039 191.379C29.1039 190.729 29.0133 190.254 28.8319 189.955C28.6399 189.646 28.3306 189.491 27.9039 189.491L25.8399 189.491C25.3919 189.491 25.1039 189.683 24.9759 190.067C24.9226 190.249 24.8906 190.419 24.8799 190.579C24.8586 190.729 24.8479 190.926 24.8479 191.171L24.8479 194.243L19.6159 194.243L19.6159 188.259L20.7039 188.259L20.7039 192.803L23.8559 192.803V190.403C23.8559 189.977 23.9093 189.598 24.0159 189.267C24.1119 188.937 24.2826 188.643 24.5279 188.387C24.7946 188.121 25.1413 187.987 25.5679 187.987L27.9359 187.987C28.3093 187.987 28.6399 188.057 28.9279 188.195C29.2053 188.323 29.4239 188.499 29.5839 188.723C29.7333 188.926 29.8559 189.187 29.9519 189.507C30.0479 189.817 30.1066 190.126 30.1279 190.435C30.1493 190.819 30.1599 191.15 30.1599 191.427Z" fill="#155268"/>
<path d="M30.1599 200.901C30.1599 201.797 30.0586 202.805 29.8559 203.925H28.7039C28.9706 202.655 29.1039 201.594 29.1039 200.741C29.1039 199.322 28.7039 198.613 27.9039 198.613H26.1279C25.6906 198.613 25.4026 198.847 25.2639 199.317C25.2106 199.541 25.1786 199.743 25.1679 199.925C25.1466 200.095 25.1359 200.319 25.1359 200.597V202.597H24.1439V200.869C24.1439 200.591 24.1386 200.367 24.1279 200.197C24.1066 200.026 24.0639 199.829 23.9999 199.605C23.9466 199.37 23.8453 199.189 23.6959 199.061C23.5466 198.933 23.3546 198.869 23.1199 198.869H21.2639C20.7199 198.869 20.4479 199.509 20.4479 200.789C20.4479 201.642 20.5333 202.618 20.7039 203.717H19.5999C19.5039 202.799 19.4559 201.829 19.4559 200.805C19.4559 199.621 19.5893 198.762 19.8559 198.229C20.1119 197.685 20.5546 197.413 21.1839 197.413H23.1839C23.5146 197.413 23.7919 197.546 24.0159 197.813C24.2293 198.079 24.3679 198.421 24.4319 198.837H24.4959C24.5386 198.581 24.5866 198.373 24.6399 198.213C24.6826 198.042 24.7519 197.861 24.8479 197.669C25.0399 197.295 25.3759 197.109 25.8559 197.109H27.9359C28.2986 197.109 28.6239 197.189 28.9119 197.349C29.1999 197.509 29.4239 197.711 29.5839 197.957C29.7333 198.17 29.8559 198.453 29.9519 198.805C30.0373 199.157 30.0959 199.503 30.1279 199.845C30.1493 200.25 30.1599 200.602 30.1599 200.901Z" fill="#155268"/>
<path d="M30.1599 209.814C30.1599 210.283 30.1439 210.667 30.1119 210.966C30.0799 211.254 30.0159 211.563 29.9199 211.894C29.8239 212.246 29.6853 212.528 29.5039 212.742C29.3119 212.944 29.0453 213.115 28.7039 213.254C28.3839 213.392 27.9839 213.462 27.5039 213.462H22.2559C21.7759 213.462 21.3546 213.392 20.9919 213.254C20.6293 213.115 20.3413 212.934 20.1279 212.71C19.9466 212.507 19.8026 212.24 19.6959 211.91C19.5786 211.568 19.5039 211.227 19.4719 210.886C19.4506 210.502 19.4399 210.144 19.4399 209.814C19.4399 209.344 19.4559 208.966 19.4879 208.678C19.5199 208.379 19.5839 208.064 19.6799 207.734C19.7866 207.382 19.9359 207.099 20.1279 206.886C20.3199 206.662 20.5919 206.48 20.9439 206.342C21.2959 206.203 21.7279 206.134 22.2399 206.134H27.5039C27.9413 206.134 28.3306 206.203 28.6719 206.342C29.0133 206.48 29.2799 206.662 29.4719 206.886C29.6533 207.099 29.8026 207.371 29.9199 207.702C30.0266 208.032 30.0906 208.368 30.1119 208.71C30.1439 209.008 30.1599 209.376 30.1599 209.814ZM29.2159 209.782C29.2159 209.216 29.1786 208.779 29.1039 208.47C29.0186 208.16 28.8586 207.936 28.6239 207.798C28.3893 207.659 28.0426 207.59 27.5839 207.59H22.1439C21.6426 207.59 21.2693 207.664 21.0239 207.814C20.7679 207.952 20.5973 208.176 20.5119 208.486C20.4266 208.784 20.3839 209.222 20.3839 209.798C20.3839 210.384 20.4266 210.832 20.5119 211.142C20.5973 211.44 20.7679 211.659 21.0239 211.798C21.2693 211.936 21.6426 212.006 22.1439 212.006H27.5839C28.0426 212.006 28.3893 211.936 28.6239 211.798C28.8586 211.648 29.0186 211.419 29.1039 211.11C29.1786 210.8 29.2159 210.358 29.2159 209.782Z" fill="#155268"/>
<path d="M30.1599 219.271C30.1599 220.135 30.0639 221.154 29.8719 222.327H28.7199C28.9759 221.09 29.1039 220.055 29.1039 219.223C29.1039 218.572 29.0133 218.098 28.8319 217.799C28.6399 217.49 28.3306 217.335 27.9039 217.335H25.8399C25.3919 217.335 25.1039 217.527 24.9759 217.911C24.9226 218.092 24.8906 218.263 24.8799 218.423C24.8586 218.572 24.8479 218.77 24.8479 219.015V222.087H19.6159L19.6159 216.103H20.7039L20.7039 220.647H23.8559V218.247C23.8559 217.82 23.9093 217.442 24.0159 217.111C24.1119 216.78 24.2826 216.487 24.5279 216.231C24.7946 215.964 25.1413 215.831 25.5679 215.831H27.9359C28.3093 215.831 28.6399 215.9 28.9279 216.039C29.2053 216.167 29.4239 216.343 29.5839 216.567C29.7333 216.77 29.8559 217.031 29.9519 217.351C30.0479 217.66 30.1066 217.97 30.1279 218.279C30.1493 218.663 30.1599 218.994 30.1599 219.271Z" fill="#155268"/>
</g>
</g>
<defs>
<clipPath id="clip0_1391_9890">
<rect width="2423" height="48" fill="white" transform="translate(0 2423) rotate(-90)"/>
</clipPath>
</defs>
</svg>
