<svg width="40" height="40" viewBox="0 0 40 40" fill="none" xmlns="http://www.w3.org/2000/svg">
<g clip-path="url(#clip0_991_5252)">
<path d="M40 20C40 8.9543 31.0457 0 20 0C8.9543 0 0 8.9543 0 20C0 31.0457 8.9543 40 20 40C31.0457 40 40 31.0457 40 20Z" fill="#B0B1B4" fill-opacity="0.1"/>
<path fill-rule="evenodd" clip-rule="evenodd" d="M13.4615 13.4615H26.5385C27.0587 13.4615 27.5576 13.6682 27.9255 14.0361C28.2933 14.4039 28.5 14.9029 28.5 15.4231C28.5002 15.4393 28.4963 15.4553 28.4888 15.4697C28.4813 15.4841 28.4703 15.4964 28.4568 15.5055L20.5231 20.4642C20.3663 20.5624 20.185 20.6144 20 20.6144C19.815 20.6144 19.6337 20.5624 19.4769 20.4642L11.5458 15.5055C11.5317 15.4969 11.52 15.4848 11.512 15.4703C11.504 15.4559 11.4999 15.4396 11.5 15.4231C11.5 14.9029 11.7067 14.4039 12.0745 14.0361C12.4424 13.6682 12.9413 13.4615 13.4615 13.4615ZM21.5614 22.1276L28.0004 18.1025C28.0497 18.0716 28.1064 18.0544 28.1646 18.0528C28.2228 18.0512 28.2804 18.0652 28.3313 18.0934C28.3823 18.1218 28.4249 18.1633 28.4546 18.2136C28.4842 18.264 28.4999 18.3213 28.5 18.3798V24.5769C28.5 25.0972 28.2933 25.5961 27.9255 25.9639C27.5576 26.3318 27.0587 26.5385 26.5384 26.5385H13.4615C12.942 26.5374 12.4441 26.3303 12.077 25.9626C11.71 25.5948 11.5039 25.0965 11.5039 24.5769V18.3798C11.5037 18.3213 11.5193 18.2638 11.549 18.2134C11.5786 18.163 11.6214 18.1216 11.6726 18.0934C11.7234 18.0649 11.781 18.0508 11.8393 18.0524C11.8975 18.054 11.9543 18.0713 12.0034 18.1025L18.4438 22.1276C18.9118 22.4182 19.4517 22.5721 20.0026 22.5721C20.5535 22.5721 21.0934 22.4182 21.5614 22.1276Z" fill="currentColor"/>
</g>
<defs>
<clipPath id="clip0_991_5252">
<rect width="40" height="40" fill="white"/>
</clipPath>
</defs>
</svg>
