<svg width="25" height="17" viewBox="0 0 25 17" fill="none" xmlns="http://www.w3.org/2000/svg">
<g clip-path="url(#clip0_383_4609)">
<path fill-rule="evenodd" clip-rule="evenodd" d="M1.25875 0.438991C0.706469 0.438991 0.258754 0.886706 0.258754 1.43899C0.258754 1.99128 0.706469 2.43899 1.25875 2.43899H23.5445C24.0968 2.43899 24.5445 1.99128 24.5445 1.43899C24.5445 0.886706 24.0968 0.438991 23.5445 0.438991H1.25875ZM0.258754 8.29613C0.258754 7.74385 0.706469 7.29613 1.25875 7.29613H23.5445C24.0968 7.29613 24.5445 7.74385 24.5445 8.29613C24.5445 8.84842 24.0968 9.29613 23.5445 9.29613H1.25875C0.706469 9.29613 0.258754 8.84842 0.258754 8.29613ZM0.258754 15.1533C0.258754 14.601 0.706469 14.1533 1.25875 14.1533H23.5445C24.0968 14.1533 24.5445 14.601 24.5445 15.1533C24.5445 15.7056 24.0968 16.1533 23.5445 16.1533H1.25875C0.706469 16.1533 0.258754 15.7056 0.258754 15.1533Z" fill="currentColor"/>
</g>
<defs>
<clipPath id="clip0_383_4609">
<rect width="24" height="15.4286" fill="white" transform="translate(0.401611 0.581848)"/>
</clipPath>
</defs>
</svg>
