<svg width="40" height="40" viewBox="0 0 40 40" fill="none" xmlns="http://www.w3.org/2000/svg">
<g clip-path="url(#clip0_991_5257)">
<path d="M40 20C40 8.9543 31.0457 0 20 0C8.9543 0 0 8.9543 0 20C0 31.0457 8.9543 40 20 40C31.0457 40 40 31.0457 40 20Z" fill="#B0B1B4" fill-opacity="0.1"/>
<path d="M28.4663 20.0675C28.4663 21.7289 27.9736 23.3529 27.0506 24.7343C26.1276 26.1157 24.8157 27.1923 23.2808 27.8281C21.7459 28.4639 20.0569 28.6302 18.4275 28.3061C16.7981 27.982 15.3013 27.182 14.1266 26.0072C12.9518 24.8324 12.1518 23.3357 11.8277 21.7063C11.5036 20.0768 11.6699 18.3879 12.3057 16.853C12.9415 15.3181 14.0181 14.0062 15.3995 13.0832C16.7808 12.1602 18.4049 11.6675 20.0663 11.6675C20.6836 11.6641 21.2991 11.7338 21.9 11.875C21.0397 12.1216 20.2587 12.5884 19.6342 13.2294C19.0096 13.8704 18.5632 14.6633 18.3391 15.5297C18.115 16.3961 18.1209 17.306 18.3562 18.1694C18.5916 19.0328 19.0483 19.8199 19.6811 20.4527C20.3139 21.0855 21.1009 21.5422 21.9643 21.7775C22.8278 22.0129 23.7377 22.0188 24.6041 21.7947C25.4705 21.5706 26.2634 21.1242 26.9044 20.4996C27.5453 19.8751 28.0122 19.0941 28.2588 18.2338C28.4 18.8338 28.47 19.45 28.4663 20.0675Z" fill="currentColor"/>
</g>
<defs>
<clipPath id="clip0_991_5257">
<rect width="40" height="40" fill="white"/>
</clipPath>
</defs>
</svg>
