<svg width="19" height="19" viewBox="0 0 19 19" fill="none" xmlns="http://www.w3.org/2000/svg">
<path d="M13.3604 9.08741C13.3604 10.1925 12.9213 11.2524 12.1399 12.0338C11.3585 12.8153 10.2986 13.2543 9.19348 13.2543C8.08835 13.2543 7.02849 12.8153 6.24705 12.0338C5.46561 11.2524 5.0266 10.1925 5.0266 9.08741C5.0266 7.98229 5.46561 6.92243 6.24705 6.14099C7.02849 5.35955 8.08835 4.92054 9.19348 4.92054C10.2986 4.92054 11.3585 5.35955 12.1399 6.14099C12.9213 6.92243 13.3604 7.98229 13.3604 9.08741ZM9.19285 3.87866C9.35791 3.8764 9.51557 3.80982 9.63229 3.6931C9.74901 3.57638 9.81559 3.41872 9.81785 3.25366V0.753662C9.81785 0.587902 9.752 0.42893 9.63479 0.31172C9.51758 0.19451 9.35861 0.128662 9.19285 0.128662C9.02709 0.128662 8.86812 0.19451 8.75091 0.31172C8.6337 0.42893 8.56785 0.587902 8.56785 0.753662V3.25366C8.57012 3.41872 8.63669 3.57638 8.75341 3.6931C8.87014 3.80982 9.0278 3.8764 9.19285 3.87866ZM9.19285 14.2962C9.0278 14.2984 8.87014 14.365 8.75341 14.4817C8.63669 14.5984 8.57012 14.7561 8.56785 14.9212V17.4212C8.56785 17.5032 8.58402 17.5845 8.61543 17.6603C8.64684 17.7362 8.69287 17.8051 8.75091 17.8631C8.80895 17.9211 8.87785 17.9672 8.95367 17.9986C9.0295 18.03 9.11078 18.0462 9.19285 18.0462C9.27493 18.0462 9.3562 18.03 9.43203 17.9986C9.50786 17.9672 9.57676 17.9211 9.63479 17.8631C9.69283 17.8051 9.73887 17.7362 9.77028 17.6603C9.80168 17.5845 9.81785 17.5032 9.81785 17.4212V14.9212C9.81559 14.7561 9.74901 14.5984 9.63229 14.4817C9.51557 14.365 9.35791 14.2984 9.19285 14.2962ZM4.6266 5.40366C4.74519 5.51297 4.90144 5.5722 5.06269 5.56897C5.22394 5.56574 5.3777 5.50031 5.49182 5.38635C5.60594 5.27239 5.67159 5.11873 5.67504 4.95748C5.6785 4.79624 5.61949 4.63991 5.51035 4.52116L3.74285 2.75491C3.68619 2.69153 3.61719 2.64037 3.54008 2.60456C3.46296 2.56876 3.37936 2.54907 3.29437 2.54669C3.20938 2.54431 3.1248 2.5593 3.04581 2.59073C2.96681 2.62216 2.89506 2.66938 2.83494 2.7295C2.77482 2.78962 2.7276 2.86137 2.69617 2.94037C2.66474 3.01936 2.64975 3.10394 2.65213 3.18893C2.65451 3.27392 2.6742 3.35752 2.71 3.43464C2.74581 3.51175 2.79697 3.58075 2.86035 3.63741L4.6266 5.40366ZM13.7604 12.7712C13.6418 12.6619 13.4855 12.6026 13.3243 12.6059C13.163 12.6091 13.0093 12.6745 12.8951 12.7885C12.781 12.9024 12.7154 13.0561 12.7119 13.2173C12.7085 13.3786 12.7675 13.5349 12.8766 13.6537L14.6429 15.4212C14.7604 15.5387 14.9191 15.6049 15.0854 15.6049C15.2088 15.6046 15.3293 15.5678 15.4319 15.4991C15.5344 15.4304 15.6143 15.3329 15.6615 15.2189C15.7087 15.1049 15.721 14.9794 15.697 14.8584C15.673 14.7373 15.6137 14.6261 15.5266 14.5387L13.7604 12.7712ZM3.98535 9.08741C3.98309 8.92236 3.91651 8.7647 3.79979 8.64797C3.68307 8.53125 3.52541 8.46468 3.36035 8.46241H0.860352C0.778275 8.46241 0.697003 8.47858 0.621175 8.50999C0.545346 8.5414 0.476447 8.58743 0.418411 8.64547C0.360374 8.70351 0.314336 8.77241 0.282927 8.84823C0.251518 8.92406 0.235352 9.00534 0.235352 9.08741C0.235352 9.16949 0.251518 9.25076 0.282927 9.32659C0.314336 9.40242 0.360374 9.47132 0.418411 9.52935C0.476447 9.58739 0.545346 9.63343 0.621175 9.66483C0.697003 9.69624 0.778275 9.71241 0.860352 9.71241H3.36035C3.52541 9.71015 3.68307 9.64357 3.79979 9.52685C3.91651 9.41013 3.98309 9.25247 3.98535 9.08741ZM17.5266 8.46241H15.0266C14.9445 8.46241 14.8633 8.47858 14.7874 8.50999C14.7116 8.5414 14.6427 8.58743 14.5847 8.64547C14.5266 8.70351 14.4806 8.77241 14.4492 8.84823C14.4178 8.92406 14.4016 9.00534 14.4016 9.08741C14.4016 9.16949 14.4178 9.25076 14.4492 9.32659C14.4806 9.40242 14.5266 9.47132 14.5847 9.52935C14.6427 9.58739 14.7116 9.63343 14.7874 9.66483C14.8633 9.69624 14.9445 9.71241 15.0266 9.71241H17.5266C17.6924 9.71241 17.8513 9.64656 17.9685 9.52935C18.0858 9.41214 18.1516 9.25317 18.1516 9.08741C18.1516 8.92165 18.0858 8.76268 17.9685 8.64547C17.8513 8.52826 17.6924 8.46241 17.5266 8.46241ZM4.6266 12.7712L2.86035 14.5374C2.75105 14.656 2.69182 14.8123 2.69504 14.9735C2.69827 15.1347 2.7637 15.2885 2.87766 15.4026C2.99162 15.5167 3.14529 15.5824 3.30653 15.5859C3.46777 15.5893 3.62411 15.5303 3.74285 15.4212L5.51035 13.6549C5.6242 13.537 5.6872 13.3792 5.68577 13.2153C5.68435 13.0514 5.61862 12.8947 5.50274 12.7788C5.38686 12.6629 5.2301 12.5972 5.06623 12.5957C4.90235 12.5943 4.74448 12.6573 4.6266 12.7712ZM13.3604 5.58741C13.5254 5.58741 13.6854 5.52241 13.8016 5.40491L15.5266 3.63741C15.5863 3.57976 15.6339 3.51079 15.6667 3.43454C15.6994 3.35829 15.7167 3.27627 15.7174 3.19329C15.7181 3.1103 15.7023 3.028 15.6709 2.95119C15.6394 2.87438 15.593 2.8046 15.5343 2.74592C15.4757 2.68723 15.4059 2.64082 15.3291 2.6094C15.2523 2.57797 15.17 2.56216 15.087 2.56288C15.004 2.5636 14.922 2.58084 14.8457 2.6136C14.7695 2.64635 14.7005 2.69397 14.6429 2.75366L12.8766 4.52116C12.7864 4.61105 12.7258 4.72634 12.7029 4.8516C12.6801 4.97687 12.696 5.10613 12.7486 5.22209C12.8012 5.33805 12.888 5.43517 12.9973 5.50046C13.1067 5.56575 13.2333 5.59608 13.3604 5.58741Z" fill="#E0EEEE"/>
</svg>
